<?xml version="1.0" encoding="UTF-8"?>
<svg xmlns="http://www.w3.org/2000/svg" viewBox="0 0 64 64" width="512" height="512"><g id="Layer_26" data-name="Layer 26"><path d="M34,44H32V38.4a86.264,86.264,0,0,1,1.769-17.362l.508-2.311,1.953.429-.5,2.3A84.251,84.251,0,0,0,34,38.4Z" style="fill:#1d7147"/><path d="M30.336,46.916l-.475-4.257a31.466,31.466,0,0,0-4.5-13.311l-.844-1.375,1.7-1.047.844,1.374a33.48,33.48,0,0,1,4.79,14.16l.47,4.222Z" style="fill:#1d7147"/><path d="M30.255,16.431l1.832,1.047a2.469,2.469,0,0,1,1.168,1.542A3.933,3.933,0,0,0,37.071,22a3.94,3.94,0,0,1,1.76.415L40.94,23.47a5.018,5.018,0,0,0,3.833.272L47,23l.888.444A5.263,5.263,0,0,0,50.244,24a5.268,5.268,0,0,1,3.161,1.054l1.337,1a4.721,4.721,0,0,0,2.83.943,4.721,4.721,0,0,1,2.616.792L62,29V26a15,15,0,0,0-3-9,4.856,4.856,0,0,0-2.683-4.342L55,12v-.066a5.481,5.481,0,0,0-2.441-4.561A2.533,2.533,0,0,1,51.7,6.4,2.529,2.529,0,0,0,49.436,5h-1.45A2.381,2.381,0,0,1,46.3,4.3,4.449,4.449,0,0,0,43.158,3a4.895,4.895,0,0,1-2.193-.518A4.573,4.573,0,0,0,38.922,2a3.9,3.9,0,0,0-1.746.412A5.564,5.564,0,0,1,34.685,3a5.588,5.588,0,0,1-1.35-.166l-3.122-.781A1.805,1.805,0,0,0,29.781,2,1.781,1.781,0,0,0,28,3.781h0A2.341,2.341,0,0,0,29,5.7L38,12H31.954l-3.833,1.094Z" style="fill:#1d7147"/><path d="M17,20l4.718-6.066a9.989,9.989,0,0,1,5.927-3.663h0A13.922,13.922,0,0,1,30.382,10h0A1.618,1.618,0,0,1,32,11.618h0a1.626,1.626,0,0,1-.171.724l-.555,1.109A2.6,2.6,0,0,0,31,14.612h0a2.593,2.593,0,0,1-1.155,2.158L28,18l.293.293A2.414,2.414,0,0,1,29,20h0a2.414,2.414,0,0,1-.707,1.707L27,23l.675,1.351A3.069,3.069,0,0,1,28,25.726h0a3.075,3.075,0,0,1-.9,2.175l-.458.458a8.375,8.375,0,0,0-2.2,3.892h0A3.282,3.282,0,0,1,22.29,34.57h0a3.282,3.282,0,0,0-1.9,1.646l-.5.995A3.236,3.236,0,0,1,17,39h0l-1.348,3.371A2.592,2.592,0,0,1,13.246,44h0a2.591,2.591,0,0,0-2.024.973h0a25.667,25.667,0,0,0-4.639,8.986L6,56H6a10.242,10.242,0,0,1-3-7.243H3a10.827,10.827,0,0,0-.556-3.424h0A8.665,8.665,0,0,1,2,42.6H2a3.688,3.688,0,0,1,.188-1.16l.554-1.662A5.012,5.012,0,0,0,3,38.185H3a5.015,5.015,0,0,0-.53-2.245h0A4.453,4.453,0,0,1,2,33.949H2a3.13,3.13,0,0,1,.527-1.739l.39-.585A6.455,6.455,0,0,0,4,28.047H4a6.457,6.457,0,0,0-.331-2.04h0A13.036,13.036,0,0,1,3,21.885H3a3.051,3.051,0,0,1,1.686-2.728L7,18H7a6.472,6.472,0,0,1,3.578-5.789h0a1.415,1.415,0,0,0,.633-.633h0a4.26,4.26,0,0,1,2.462-2.136h0a5.925,5.925,0,0,0,2.316-1.431l.6-.6a1.415,1.415,0,0,1,1-.414h0A1.414,1.414,0,0,1,19,8.414h0a23.67,23.67,0,0,1-.561,5.11Z" style="fill:#1d7147"/><path d="M59,17a4.856,4.856,0,0,0-2.683-4.342L55,12v-.067a5.475,5.475,0,0,0-2.439-4.559,2.529,2.529,0,0,1-.838-.929A2.532,2.532,0,0,0,49.513,5H47.93a2.39,2.39,0,0,1-1.66-.729A4.446,4.446,0,0,0,43.158,3a5.171,5.171,0,0,1-2.243-.542A4.572,4.572,0,0,0,38.922,2a3.9,3.9,0,0,0-1.746.412A5.564,5.564,0,0,1,34.685,3a5.588,5.588,0,0,1-1.35-.166l-3.122-.781A1.805,1.805,0,0,0,29.781,2,1.781,1.781,0,0,0,28,3.781,2.341,2.341,0,0,0,29,5.7L38,12H33.955a3.6,3.6,0,0,1-.337,1.236h0a2.854,2.854,0,0,0,.8,3.185,12.055,12.055,0,0,0,3.857,2.26c3.7,1.293,5.476-.227,10.241,1.6,4.707,1.809,5.365,4.213,8.575,4.2a8.39,8.39,0,0,0,4.578-1.545A14.988,14.988,0,0,0,59,17Z" style="fill:#5d9d4d"/><path d="M31.829,12.342A1.618,1.618,0,0,0,30.383,10h0a13.922,13.922,0,0,0-2.732.27h0a9.989,9.989,0,0,0-5.927,3.663L17,20l1.439-6.476A23.67,23.67,0,0,0,19,8.414a1.414,1.414,0,0,0-2.414-1l-.6.6a5.916,5.916,0,0,1-2.1,1.347,53.441,53.441,0,0,0-4.523,9.648c-.739,2.106-1.61,7.259-3.353,17.566-1.194,7.063-1.3,8.39-.4,9.252.925.888,2.586.952,4.62.49.319-.456.646-.906.995-1.341h0A2.591,2.591,0,0,1,13.245,44a2.593,2.593,0,0,0,2.407-1.629L17,39a3.236,3.236,0,0,0,2.894-1.789l.5-.995a3.282,3.282,0,0,1,1.9-1.646,3.282,3.282,0,0,0,2.147-2.319,8.375,8.375,0,0,1,2.2-3.892L27.1,27.9a3.074,3.074,0,0,0,.576-3.55L27,23l1.293-1.293a2.414,2.414,0,0,0,0-3.414L28,18l1.845-1.23A2.593,2.593,0,0,0,31,14.612a2.6,2.6,0,0,1,.274-1.161Z" style="fill:#5d9d4d"/><rect x="20" y="44" width="24" height="4" rx="2" style="fill:#bc7e4f"/><path d="M42,48l1.893,8.517A4.529,4.529,0,0,1,44,57.5h0A4.505,4.505,0,0,1,39.495,62H24.505A4.505,4.505,0,0,1,20,57.5h0a4.529,4.529,0,0,1,.107-.978L22,48Z" style="fill:#825031"/><path d="M42,44H22a2,2,0,0,0,2,2H44A2,2,0,0,0,42,44Z" style="fill:#cd8b59"/><path d="M41.5,60a4.454,4.454,0,0,0,2.011-.494A4.454,4.454,0,0,0,44,57.5a4.529,4.529,0,0,0-.107-.978L42.444,50H28.9a7.364,7.364,0,0,0-6.791,4.517A4.507,4.507,0,0,0,26.505,60Z" style="fill:#956140"/><path d="M7.108,52.35A63.53,63.53,0,0,1,8.725,41.338l1.608,4.822c.286-.4.58-.8.889-1.187h0a2.566,2.566,0,0,1,.638-.553l-2.2-6.6q.607-2.029,1.349-4.017l4.106,9.384a2.586,2.586,0,0,0,.535-.82l.615-1.539-4.21-9.624c.414-.975.857-1.938,1.321-2.893l5.789,9.843a3.222,3.222,0,0,0,.727-.947l.477-.953L14.456,26.2q.576-1.079,1.193-2.138l8.62,8.62a3.221,3.221,0,0,0,.168-.432,8.328,8.328,0,0,1,.609-1.619L16.718,22.3c.148-.237.29-.477.442-.712l.2-.307,10.248,2.929L27,23l.809-.809-7.971-2.278,11.036-4.544A2.566,2.566,0,0,0,31,14.612a2.6,2.6,0,0,1,.274-1.161l.258-.516L18.238,18.409,17,20l.412-1.854L14.843,8.9a5.9,5.9,0,0,1-1.17.542,4.317,4.317,0,0,0-.672.3l2.207,7.943-6.192-4.37A6.453,6.453,0,0,0,7.8,14.908l7.757,5.475-.079.122c-.181.28-.351.566-.528.849L4.008,19.622a3.044,3.044,0,0,0-.98,1.869l10.81,1.71q-.612,1.054-1.183,2.128l-8.737,1.7A6.447,6.447,0,0,1,4,28.047a6.393,6.393,0,0,1-.086,1.017l7.594-1.476c-.458.948-.9,1.9-1.306,2.87L2.01,34.115a4.436,4.436,0,0,0,.46,1.825c.022.043.037.09.057.134l6.6-2.948q-.764,2.04-1.385,4.126l-5.583,4.29A3.649,3.649,0,0,0,2,42.6a8.625,8.625,0,0,0,.137,1.488l4.747-3.647A65.374,65.374,0,0,0,5.018,54.841,10.185,10.185,0,0,0,6,56l.583-2.041C6.738,53.416,6.918,52.881,7.108,52.35Z" style="fill:#1d7147"/><path d="M57.864,22.021l3.592.014a15.2,15.2,0,0,0-.7-2l-4.952-.02q-1.4-1.257-2.91-2.371l5.974-1.708a4.84,4.84,0,0,0-.847-1.838L50.74,16.177c-.864-.548-1.746-1.069-2.653-1.548l7.2-2.488L55,12v-.067a5.463,5.463,0,0,0-.285-1.712l-9.2,3.182c-.756-.329-1.52-.64-2.3-.921l8.783-5.647a2.588,2.588,0,0,1-.3-.436,2.5,2.5,0,0,0-1.053-1.074l-9.9,6.365c-.355-.1-.71-.2-1.069-.295l5.67-7.8A4.42,4.42,0,0,0,43.3,3.014L38.481,9.638,36.847,2.553a5.541,5.541,0,0,1-1.953.435l1.882,8.155L38,12H36.946l-2.867,8.6a3.923,3.923,0,0,0,1.713,1.181l2.864-8.591.293.074c.326.081.645.176.967.266l.059,9.453.965.483a4.988,4.988,0,0,0,1.04.38l-.06-9.7q1.311.447,2.577.989l.363,8.572,1.974-.658-.3-6.963q1.57.791,3.052,1.726l.225,6.157c.143.012.285.025.428.025a5.25,5.25,0,0,1,1.583.25L51.642,19.2q1.423,1.043,2.741,2.22l-.169,4.239.528.4a4.7,4.7,0,0,0,1.428.723l.14-3.489a36.974,36.974,0,0,1,3.574,4.329c.1.057.207.107.3.172L62,29V27.172A38.9,38.9,0,0,0,57.864,22.021Z" style="fill:#1d7147"/></g></svg>
