<svg height="512" viewBox="0 0 64 64" width="512" xmlns="http://www.w3.org/2000/svg"><g id="Layer_18" data-name="Layer 18"><path d="m21 44v12a6 6 0 0 0 6 6h10a6 6 0 0 0 6-6v-12z" fill="#825031"/><rect fill="#bc7e4f" height="4" rx="2" width="26" x="19" y="40"/><path d="m36.727 20.546a5.073 5.073 0 0 0 3.559 2.393l5.83-2.708 2.894-2.574a8.9 8.9 0 0 0 2.99-6.657 2 2 0 0 0 -2-2 19.3 19.3 0 0 0 -9.371 2.428l-1.2.664q-.232.129-.452.275z" fill="#5d9d4d"/><path d="m50 9a19.292 19.292 0 0 0 -9.113 2.3 14.694 14.694 0 0 1 .113 1.731 14.612 14.612 0 0 1 -.8 4.717 22.093 22.093 0 0 0 2.843-.32c2.338-.418 5.593-1.006 8.305-3.115a8.886 8.886 0 0 0 .652-3.313 2 2 0 0 0 -2-2z" fill="#7eba62"/><path d="m18.136 23.767a18.022 18.022 0 0 1 -10.508-5.139l-1.628-1.628.638-.511a15.93 15.93 0 0 1 9.948-3.489 10.24 10.24 0 0 1 6.145 2.049 3.169 3.169 0 0 1 1.269 2.537 3.413 3.413 0 0 1 -1 2.414l.379.379a2.12 2.12 0 0 1 .621 1.5 2.122 2.122 0 0 1 -2.121 2.121 30.2 30.2 0 0 1 -3.743-.233z" fill="#5d9d4d"/><path d="m22.731 15.049a10.24 10.24 0 0 0 -6.145-2.049 15.907 15.907 0 0 0 -7.213 1.743 10.85 10.85 0 0 0 1.956 2.743c3.192 3.233 8.747 4.659 12.51 3.581a2.126 2.126 0 0 0 -.46-.688l-.379-.379a3.413 3.413 0 0 0 1-2.411 3.169 3.169 0 0 0 -1.269-2.54z" fill="#7eba62"/><path d="m32 20a3.415 3.415 0 0 1 -2.414 1 2.343 2.343 0 0 1 -2.175-1.472l-.411-1.028a14.008 14.008 0 0 1 -1-5.2 13.99 13.99 0 0 1 1.478-6.259l1.546-3.093a3.532 3.532 0 0 1 3.159-1.948 3.531 3.531 0 0 1 2.873 1.479l1.6 2.241a12.575 12.575 0 0 1 2.344 7.311 12.585 12.585 0 0 1 -1.328 5.625l-1 2a2.426 2.426 0 0 1 -2.172 1.344 2.426 2.426 0 0 1 -2.171-1.342z" fill="#5d9d4d"/><path d="m36.657 5.72-1.6-2.241a3.531 3.531 0 0 0 -6.032.473l-1.547 3.092a13.959 13.959 0 0 0 -.858 2.221l1.526 5.557a6.562 6.562 0 0 0 4.727 4.626 6.536 6.536 0 0 0 4.705-.6l.094-.188a12.578 12.578 0 0 0 -1.015-12.94z" fill="#7eba62"/><path d="m50 9a41.764 41.764 0 0 0 -15.355 15.549l-2.55 4.4-.678-1.308.26-.931 1.544-7.71a40.268 40.268 0 0 0 .779-7.875 40.2 40.2 0 0 0 -.509-6.369l-.424-2.638a3.386 3.386 0 0 0 -2.013.075l.463 2.881a38.327 38.327 0 0 1 .483 6.051 38.287 38.287 0 0 1 -.74 7.479l-1.26 6.322a13.119 13.119 0 0 0 -6.6-5.845 37.894 37.894 0 0 0 -15.016-3.081h-1.078c-.224.161-.451.316-.668.489l-.638.511 1 1h1.384a35.927 35.927 0 0 1 14.245 2.929 11.185 11.185 0 0 1 5.95 5.581l.7 1.356-.216.769.717.2.693 1.34 1.3-.672-.141.243 1.73 1 3.016-5.207a39.807 39.807 0 0 1 15.34-15.239l.128-.071a2 2 0 0 0 -1.846-1.229z" fill="#5d9d4d"/><path d="m37.928 25.429.133-.177a13.131 13.131 0 0 1 10.504-5.252 13.131 13.131 0 0 1 11.26 6.375l2.175 3.625a18.256 18.256 0 0 1 -11.4 4 47.118 47.118 0 0 1 -9.647-1z" fill="#5d9d4d"/><path d="m59.825 26.375a13.12 13.12 0 0 0 -20.657-2.4 13.5 13.5 0 0 0 12.171 8.025h.261a18.248 18.248 0 0 0 9.86-2.905z" fill="#7eba62"/><path d="m55.494 26.321a18.637 18.637 0 0 0 -15.927 1.061l-.7.41.75 1.879.943-.555a16.628 16.628 0 0 1 14.188-.938l6.3 2.519c.322-.225.643-.451.951-.7l-.85-1.417z" fill="#5d9d4d"/><path d="m25 34.78c-.075.074-.155.144-.238.211a36.047 36.047 0 0 1 -19.954 7.809l-2.808.2.2-1.137a19.2 19.2 0 0 1 18.908-15.863 11.669 11.669 0 0 1 3.687.6 1.762 1.762 0 0 1 1.118 1.125z" fill="#5d9d4d"/><path d="m24.356 26.471a11.667 11.667 0 0 0 -3.248-.471 19.19 19.19 0 0 0 -16.869 10.061 7.556 7.556 0 0 0 1.561 1.514c4.6 3.267 12.689.884 17.249-4.257a40.671 40.671 0 0 1 .509-4.817 5.383 5.383 0 0 1 .798-2.03z" fill="#7eba62"/><path d="m32 28-.057-.114a3.413 3.413 0 0 0 -3.052-1.886h-.019a3.391 3.391 0 0 0 -3.344 2.832 38.6 38.6 0 0 0 -.528 6.36 11.405 11.405 0 0 0 4.7 9.224l6.3 4.584 1.531-2.45a22.82 22.82 0 0 0 3.469-12.095 21.285 21.285 0 0 0 -1.093-6.733 3.981 3.981 0 0 0 -3.776-2.722 3.982 3.982 0 0 0 -3.313 1.773z" fill="#5d9d4d"/><path d="m41 34.455a21.285 21.285 0 0 0 -1.093-6.733 3.981 3.981 0 0 0 -7.089-.949l-.818 1.227-.057-.114a3.413 3.413 0 0 0 -3.052-1.886h-.019a3.363 3.363 0 0 0 -1.416.323 38.575 38.575 0 0 0 -.456 5.869 11.405 11.405 0 0 0 4.7 9.224l6.2 4.507a22.808 22.808 0 0 0 3.1-11.468z" fill="#7eba62"/><path d="m6.075 40.06a27.979 27.979 0 0 1 19.284-9.025h.126l.259-2-.446.006a29.984 29.984 0 0 0 -20.692 9.659l-2.242 2.43c-.053.244-.12.483-.163.731l-.201 1.139 1.457-.1z" fill="#5d9d4d"/><path d="m36.609 47.433a119.643 119.643 0 0 1 -3.614-19.533l-.121-1.2c-.018.026-.039.048-.056.074l-.818 1.226-.057-.114a3.4 3.4 0 0 0 -1.086-1.253l.148 1.467a121.566 121.566 0 0 0 3.675 19.858l.027.1 1.293.942.722-1.155z" fill="#5d9d4d"/><path d="m21 40a2 2 0 0 0 2 2h1.889a13.532 13.532 0 0 1 -.983-2z" fill="#cd8b59"/><path d="m45 42a2 2 0 0 0 -2-2h-.637c-.155.675-.342 1.341-.552 2z" fill="#cd8b59"/><path d="m39.228 47.609-2.669 4.271-8.038-5.847c-.015-.01-.027-.023-.041-.033h-.046a5.434 5.434 0 0 0 -5.434 5.434v2.566a6 6 0 0 0 6 6h10a5.968 5.968 0 0 0 3.119-.881 5.968 5.968 0 0 0 .881-3.119v-10h-2.852c-.287.546-.592 1.084-.92 1.609z" fill="#956140"/></g></svg>