<svg height="512" viewBox="0 0 32 32" width="512" xmlns="http://www.w3.org/2000/svg"><g id="leaf_plant"><g><g><path d="m16.0009766 6.7822266c-3.6533203-5.3457032-13.5449219-5.7666016-13.9648438-5.7822266-.3066406-.0170898-.5878906.112793-.7851562.3374023-.1982422.2241211-.2861328.5253907-.2382813.8212891.0566406.3515625 1.4248047 8.6533203 4.7451172 12.3779297.9960938 1.1176758 2.3857422 1.7084961 4.0185547 1.7084961 2.3623047 0 4.5322266-1.2158203 4.6230469-1.2675781.0957031-.0541992.1816406-.1235352.2548828-.2055664.1572265-.1767579 3.8173828-4.3735352 1.3466797-7.9897461z" fill="#66bb6a"/><path d="m30.4667969 11.9619141c-.0908203-.0478516-2.2558594-1.175293-4.890625-1.175293-1.8300781 0-3.4423828.5332031-4.7910156 1.5844727-3.1933594 2.4892578-2.0488281 6.1342773-1.9980469 6.2880859.0683594.2114258.2060547.3935547.3896484.5180664.0966797.0649414 2.3837891 1.5927734 4.7929688 1.5927734.9140625 0 1.7402344-.2167969 2.4541016-.6445313 3.6474609-2.1845703 4.5253906-6.9042969 4.5605469-7.1040039.0761718-.4282226-.1328126-.8564452-.5175782-1.0595702z" fill="#66bb6a"/><path d="m24.2939453 15.7041016c-.2246094-.5039063-.8134766-.7338867-1.3193359-.5083008-2.5 1.109375-4.6386719 2.8295898-6.0908203 4.7875977-.7060547-4.1274414-2.4208984-8.5693359-6.2441406-11.7519531-.4238281-.3540039-1.0546875-.2958984-1.4082031.1289063-.3535157.4243163-.2958985 1.0546874.1289062 1.408203 7.0654297 5.8818359 6.1103516 16.8642578 5.6494141 20.0898438-.078125.546875.3017578 1.0532227.8486328 1.1313477.0478515.0068358.0957031.0102538.1425781.0102538.4902344 0 .9179688-.3598633.9892578-.8583984.1875-1.3115234.4472656-3.8120117.2802734-6.769043.9111328-2.5375977 3.3886719-4.9614258 6.5146484-6.3486328.5048829-.2241211.7324219-.8149414.5087891-1.3198242z" fill="#43a047"/></g><g opacity=".1"><path d="m16 12.7597656v-5.9799804c1.4296875 2.1000976.8095703 4.3901367 0 5.9799804z"/><path d="m30.9804688 13.0200195c-.0302734.2001953-.9101563 4.9199219-4.5605469 7.1098633-.7099609.4199219-1.5400391.6401367-2.4501953.6401367-1.6396484 0-3.2099609-.7001953-4.0800781-1.1699219-1.2197266 1.1298828-2.1396484 2.4399414-2.6201172 3.7700195.1708984 2.9599609-.0898438 5.4599609-.2792969 6.7700195-.0703125.5000001-.5.8598634-.9902344.8598634v-14.5698242c.4003906 1.1899414.6796875 2.3798828.8798828 3.5498047.5097656-.6801758 1.1005859-1.3300781 1.7597656-1.9399414-.1992188-1.1699219-.3095703-3.7602539 2.1503906-5.6699219 1.3398438-1.050293 2.9599609-1.5800781 4.7900391-1.5800781 2.6298828 0 4.7998047 1.1201172 4.8896484 1.1699219.3798829.2099609.5898438.6298828.5107423 1.0600585z"/></g></g></g></svg>