<?xml version="1.0" encoding="UTF-8"?>
<svg xmlns="http://www.w3.org/2000/svg" viewBox="0 0 64 64" width="512" height="512"><g id="Layer_22" data-name="Layer 22"><path d="M28,42.187H26V40a19.837,19.837,0,0,0-1.594-7.81L22.62,27.877l1.847-.766,1.783,4.305A21.793,21.793,0,0,1,28,40Z" style="fill:#1d7147"/><rect x="18" y="40" width="28" height="4" rx="2" style="fill:#bc7e4f"/><path d="M35.876,22.174l-1.982-.266.272-2.026a19.166,19.166,0,0,1,2.1-6.545l.649-1.346,1.8.869-.667,1.382a17.266,17.266,0,0,0-1.9,5.9Z" style="fill:#1d7147"/><path d="M37,8l-.462-.231A2.781,2.781,0,0,1,35,5.281h0a2.782,2.782,0,0,1,2.236-2.728l1.545-.309A12.564,12.564,0,0,1,41.243,2h0A14,14,0,0,1,53.111,8.578h0a7.6,7.6,0,0,1,1.1,3.086L55,18h0a38.967,38.967,0,0,0-12.325-2H41.586A5.586,5.586,0,0,1,36,10.414h0A3.415,3.415,0,0,1,37,8Z" style="fill:#5d9d4d"/><path d="M54.208,11.664a7.6,7.6,0,0,0-1.1-3.086A14,14,0,0,0,41.243,2a12.564,12.564,0,0,0-2.462.244l-1.545.309c-.058.012-.111.034-.168.049-.134,6.443,1.43,8.875,3.068,9.813,1.786,1.022,3.026-.081,6.744.259a17.758,17.758,0,0,1,7.8,2.745Z" style="fill:#7eba62"/><path d="M31.617,21.33A18.462,18.462,0,0,0,32,17.586h0A6.586,6.586,0,0,0,25.414,11h0A3.415,3.415,0,0,0,23,12h0a6.826,6.826,0,0,0-4.828-2h0a10.072,10.072,0,0,0-7.122,2.95h0A7,7,0,0,0,9,17.9H9a24.2,24.2,0,0,0,2.892,11.472L16,37l5.791-2.9a18.468,18.468,0,0,0,7.239-6.474Z" style="fill:#5d9d4d"/><path d="M29.03,27.63l2.587-6.3A18.462,18.462,0,0,0,32,17.586,6.586,6.586,0,0,0,25.414,11h0A3.415,3.415,0,0,0,23,12a6.826,6.826,0,0,0-4.828-2,10.056,10.056,0,0,0-3.927.8,27.8,27.8,0,0,0-.127,10.753c.658,3.506,1.318,7.023,4.118,9.08a9.931,9.931,0,0,0,6.467,1.65A18.487,18.487,0,0,0,29.03,27.63Z" style="fill:#7eba62"/><path d="M22.832,19.484a11.8,11.8,0,0,1-.4,10.995L20.52,33.824l-.679,1.255,1.95-.974c.439-.22.862-.46,1.278-.711l1.1-1.923a13.886,13.886,0,0,0,.259-13.313,6.417,6.417,0,0,1,3.3,7.6l-1.021,3.405-.688,2.022A18.5,18.5,0,0,0,29.03,27.63l.71-1.73a8.332,8.332,0,0,0-4.857-9.753l-1.115-.477a2.681,2.681,0,0,1,3.586.1,15.02,15.02,0,0,1,3.457,5.377l.454,1.043.352-.858a18.475,18.475,0,0,0,.324-2.587,16.93,16.93,0,0,0-3.173-4.389,4.61,4.61,0,0,0-5.08-.981l.537-2.149A3.4,3.4,0,0,0,23,12a6.8,6.8,0,0,0-.852-.714L21.5,13.869a7.318,7.318,0,0,0-10.06.275l-2.28,2.28A6.98,6.98,0,0,0,9,17.9c0,.486.016.97.045,1.452l.662-.645,3.149-3.148a5.308,5.308,0,0,1,7.2-.291l-1.143.164a9.6,9.6,0,0,0-8.146,8.147l-.349,2.444a24.193,24.193,0,0,0,1.476,3.349l.11.2.146-1.544.6-4.17a7.594,7.594,0,0,1,6.381-6.436,25.888,25.888,0,0,0-6.479,13.346L14.222,33.7l.364-2.432a23.894,23.894,0,0,1,6.332-12.848,38.7,38.7,0,0,1-5.435,17.5l-.035.058L16,37l1.624-.812A40.705,40.705,0,0,0,22.832,19.484Z" style="fill:#1d7147"/><path d="M20,44l1.557,14.023A4.47,4.47,0,0,0,26,62H38a4.471,4.471,0,0,0,4.443-3.976L44,44Z" style="fill:#825031"/><path d="M32,40H20a2,2,0,0,0,2,2H34A20.441,20.441,0,0,1,32,40Z" style="fill:#cd8b59"/><path d="M29.405,46a5.487,5.487,0,0,0-5.422,6.329l.574,3.694A4.47,4.47,0,0,0,29,60H41a4.527,4.527,0,0,0,.75-.07,4.435,4.435,0,0,0,.693-1.906l1.165-10.485L40.528,46Z" style="fill:#956140"/><path d="M38,21h0a6.826,6.826,0,0,1,4.828-2h0a10.072,10.072,0,0,1,7.122,2.95h0A7,7,0,0,1,52,26.9h0a24.2,24.2,0,0,1-2.892,11.472L45,46l-5.791-2.9A18.47,18.47,0,0,1,29,26.586h0A6.586,6.586,0,0,1,35.586,20h0A3.415,3.415,0,0,1,38,21Z" style="fill:#5d9d4d"/><path d="M41.209,40.1,46.7,42.848l2.411-4.477A24.2,24.2,0,0,0,52,26.9a7,7,0,0,0-2.05-4.949A10.072,10.072,0,0,0,42.828,19,6.826,6.826,0,0,0,38,21a3.415,3.415,0,0,0-2.414-1h0a6.556,6.556,0,0,0-4.272,1.579A6.56,6.56,0,0,0,31,23.586,18.47,18.47,0,0,0,41.209,40.1Z" style="fill:#7eba62"/><path d="M45.517,44.918a38.7,38.7,0,0,1-5.435-17.5,23.894,23.894,0,0,1,6.332,12.848l.333,2.491,1.607-2.985a25.888,25.888,0,0,0-6.479-13.346,7.594,7.594,0,0,1,6.381,6.436l.59,4.123L49,38.577l.111-.206a24.2,24.2,0,0,0,1.476-3.35l-.349-2.443a9.6,9.6,0,0,0-8.146-8.147l-1.143-.164a5.308,5.308,0,0,1,7.2.291L51.282,27.7l.672.693Q52,27.646,52,26.9a7,7,0,0,0-.162-1.476l-2.28-2.279a7.318,7.318,0,0,0-10.06-.275l-.646-2.583A6.886,6.886,0,0,0,38,21a3.4,3.4,0,0,0-1.225-.776l.537,2.149a4.61,4.61,0,0,0-5.08.981,16.947,16.947,0,0,0-3.19,4.427,18.355,18.355,0,0,0,.618,3.674l.548-1.356a14.936,14.936,0,0,1,3.438-5.331,2.682,2.682,0,0,1,3.586-.1l-1.115.477a8.443,8.443,0,0,0-4.761,10.186l.166.549A18.475,18.475,0,0,0,34.889,40.1l-1.617-5.344a6.419,6.419,0,0,1,3.3-7.6,13.888,13.888,0,0,0,.259,13.314l1.122,1.939c.408.245.825.479,1.255.7L41.26,44.13l-2.692-4.651a11.8,11.8,0,0,1-.4-10.995,40.705,40.705,0,0,0,5.208,16.7L45,46l.552-1.024Z" style="fill:#1d7147"/><path d="M54.748,16a24.261,24.261,0,0,0-8.282-6.974,18.658,18.658,0,0,1,6.7,1.39l.9.457a7.594,7.594,0,0,0-.954-2.292c-.084-.135-.176-.263-.264-.394A20.664,20.664,0,0,0,46,7H43.171a8.622,8.622,0,0,1,3.571-1.983L48.1,4.645l.985-.232a14.045,14.045,0,0,0-2.613-1.4l-.26.071A10.618,10.618,0,0,0,41.231,6.11,3.6,3.6,0,0,1,41,4.911a3.653,3.653,0,0,1,.834-2.31l.419-.561c-.335-.025-.671-.04-1.01-.04a12.607,12.607,0,0,0-1.479.1A5.538,5.538,0,0,0,39.412,7H35.628a2.747,2.747,0,0,0,.91.769L37,8a3.411,3.411,0,0,0-.683,1H40.2a12.474,12.474,0,0,0,4.977,7.088,39.064,39.064,0,0,1,4.639.58l-2.048-1.219c-.374-.267-.78-.543-1.2-.818a10.524,10.524,0,0,1-4.107-5.154A22.3,22.3,0,0,1,53.147,17.2l.228.3c.545.156,1.087.321,1.625.5l-.25-2Z" style="fill:#1d7147"/></g></svg>
