<svg width="432" height="64" viewBox="0 0 432 64" fill="none" xmlns="http://www.w3.org/2000/svg">
<g clip-path="url(#clip0_2103_443)">
<path d="M27.5019 14.3525C20.3094 3.82818 0.835308 2.99954 0.00858666 2.96878C-0.595112 2.93513 -1.14882 3.19084 -1.53719 3.63304C-1.92748 4.07427 -2.10051 4.6674 -2.00631 5.24995C-1.89479 5.94209 0.798778 22.2862 7.33564 29.619C9.2967 31.8194 12.0326 32.9826 15.2472 32.9826C19.898 32.9826 24.17 30.589 24.3488 30.4871C24.5372 30.3804 24.7064 30.2438 24.8506 30.0823C25.1601 29.7344 32.3661 21.4719 27.5019 14.3525Z" fill="#66BB6A"/>
<path d="M55.9815 24.5499C55.8027 24.4557 51.5402 22.2361 46.353 22.2361C42.7501 22.2361 39.5759 23.2858 36.9207 25.3555C30.6338 30.2562 32.8871 37.4324 32.9871 37.7352C33.1217 38.1514 33.3927 38.51 33.7542 38.7551C33.9445 38.883 38.4473 41.8909 43.1904 41.8909C44.9899 41.8909 46.6164 41.4641 48.0219 40.622C55.2028 36.3211 56.9312 27.0291 57.0004 26.636C57.1504 25.7929 56.739 24.9498 55.9815 24.5499Z" fill="#66BB6A"/>
<path d="M43.8288 31.9174C43.3866 30.9254 42.2272 30.4726 41.2313 30.9167C36.3094 33.1008 32.0989 36.4875 29.24 40.3423C27.85 32.2164 24.4739 23.4714 16.9469 17.2056C16.1125 16.5087 14.8704 16.6231 14.1745 17.4594C13.4785 18.2948 13.5919 19.5358 14.4282 20.2318C28.3383 31.8117 26.458 53.4333 25.5505 59.7837C25.3967 60.8603 26.1446 61.8572 27.2213 62.011C27.3155 62.0245 27.4097 62.0312 27.502 62.0312C28.4671 62.0312 29.3092 61.3227 29.4496 60.3412C29.8187 57.7592 30.3301 52.8363 30.0014 47.0147C31.7952 42.0188 36.6728 37.2469 42.8271 34.5158C43.8211 34.0746 44.269 32.9114 43.8288 31.9174Z" fill="#43A047"/>
<g opacity="0.1">
<path d="M27.5 26.1207V14.3477C30.3147 18.4822 29.0938 22.9907 27.5 26.1207Z" fill="black"/>
<path d="M56.9928 26.6332C56.9332 27.0273 55.2009 36.3193 48.0142 40.6307C46.6165 41.4575 44.9823 41.891 43.1904 41.891C39.9623 41.891 36.8708 40.5125 35.1577 39.5877C32.7564 41.8122 30.9453 44.3914 29.9994 47.0099C30.3358 52.8374 29.8225 57.7592 29.4495 60.3384C29.3111 61.3228 28.4651 62.0313 27.5 62.0313V33.3469C28.2883 35.6896 28.8381 38.0323 29.2323 40.3356C30.2359 38.9965 31.399 37.717 32.6968 36.5164C32.3046 34.2131 32.0873 29.1134 36.9304 25.3537C39.5682 23.2859 42.7578 22.2429 46.3608 22.2429C51.5384 22.2429 55.8104 24.4482 55.9873 24.5462C56.7352 24.9596 57.1485 25.7863 56.9928 26.6332Z" fill="black"/>
</g>
</g>
<path d="M81.128 62.152C79.0373 62.152 77.5227 61.0853 76.584 58.952C75.6453 56.8613 75.0693 54.472 74.856 51.784C74.6853 49.096 74.6 45.5547 74.6 41.16C74.6 37.7893 74.728 34.824 74.984 32.264C75.2827 29.704 75.944 27.4853 76.968 25.608C77.992 23.7307 79.5493 22.792 81.64 22.792C83.816 22.792 85.3947 23.6453 86.376 25.352C87.3573 24.6267 88.5733 24.0507 90.024 23.624C91.5173 23.1547 93.0747 22.92 94.696 22.92C97.4267 22.92 99.944 23.6027 102.248 24.968C104.552 26.3333 106.387 28.168 107.752 30.472C109.117 32.776 109.8 35.2933 109.8 38.024C109.8 40.7547 109.117 43.2933 107.752 45.64C106.387 47.944 104.552 49.7787 102.248 51.144C99.944 52.5093 97.4267 53.192 94.696 53.192C93.032 53.192 91.4747 52.9787 90.024 52.552C88.5733 52.0827 87.336 51.464 86.312 50.696C86.312 53.4267 86.2267 55.5387 86.056 57.032C85.8853 58.5253 85.416 59.7413 84.648 60.68C83.9227 61.6613 82.7493 62.152 81.128 62.152ZM94.376 42.568C95.4853 42.568 96.4453 42.1627 97.256 41.352C98.1093 40.4987 98.536 39.5173 98.536 38.408C98.536 37.2987 98.1093 36.3387 97.256 35.528C96.4453 34.6747 95.4853 34.248 94.376 34.248C93.2667 34.248 92.2853 34.6747 91.432 35.528C90.6213 36.3387 90.216 37.2987 90.216 38.408C90.216 39.5173 90.6213 40.4987 91.432 41.352C92.2853 42.1627 93.2667 42.568 94.376 42.568ZM120.463 52.872C118.33 52.872 116.73 52.0827 115.663 50.504C114.596 48.9253 113.871 46.6 113.487 43.528C113.146 40.4133 112.975 36.0827 112.975 30.536C112.975 25.2027 113.103 21.0427 113.359 18.056C113.658 15.0693 114.34 12.68 115.407 10.888C116.516 9.096 118.223 8.2 120.527 8.2C122.831 8.2 124.516 9.096 125.583 10.888C126.692 12.68 127.375 15.0693 127.631 18.056C127.93 21.0427 128.079 25.2027 128.079 30.536C128.079 35.784 127.844 40.0293 127.375 43.272C126.948 46.472 126.18 48.8827 125.071 50.504C123.962 52.0827 122.426 52.872 120.463 52.872ZM141.558 53C138.23 53 135.499 52.2533 133.366 50.76C131.232 49.224 130.166 47.0267 130.166 44.168C130.166 41.6933 131.254 39.7307 133.43 38.28C135.606 36.8293 138.315 36.104 141.558 36.104C142.752 36.104 143.862 36.2107 144.885 36.424C145.952 36.5947 146.678 36.808 147.062 37.064C147.062 35.9973 146.614 35.1227 145.718 34.44C144.822 33.7147 143.456 33.352 141.622 33.352C140.811 33.352 140.15 33.416 139.638 33.544C139.126 33.672 138.571 33.864 137.974 34.12C137.376 34.376 136.822 34.568 136.31 34.696C135.84 34.824 135.2 34.888 134.39 34.888C133.024 34.888 131.958 34.5467 131.19 33.864C130.422 33.1387 130.038 32.0507 130.038 30.6C130.038 28.936 130.635 27.528 131.83 26.376C133.067 25.224 134.603 24.3707 136.438 23.816C138.272 23.2187 140.107 22.92 141.942 22.92C145.568 22.92 148.598 23.6027 151.03 24.968C153.504 26.2907 155.318 28.0613 156.47 30.28C157.664 32.4987 158.262 34.952 158.262 37.64C158.262 39.0907 158.134 40.4347 157.878 41.672C157.664 42.9093 157.366 43.8693 156.982 44.552C157.579 45.064 158.027 45.6613 158.326 46.344C158.667 47.0267 158.838 47.7307 158.838 48.456C158.838 49.6933 158.411 50.76 157.558 51.656C156.747 52.552 155.659 53 154.294 53C153.27 53 152.438 52.8507 151.798 52.552C151.158 52.2533 150.475 51.784 149.75 51.144C148.683 51.784 147.51 52.2533 146.23 52.552C144.992 52.8507 143.435 53 141.558 53ZM142.838 46.536C143.734 46.536 144.438 46.344 144.95 45.96C145.504 45.576 145.782 45.1067 145.782 44.552C145.782 43.9973 145.504 43.528 144.95 43.144C144.438 42.76 143.734 42.568 142.838 42.568C141.942 42.568 141.216 42.76 140.662 43.144C140.15 43.528 139.894 43.9973 139.894 44.552C139.894 45.1067 140.15 45.576 140.662 45.96C141.216 46.344 141.942 46.536 142.838 46.536ZM186.693 53C185.157 53 184.005 52.5733 183.237 51.72C182.511 50.8667 182.063 49.8213 181.893 48.584C181.722 47.3467 181.637 45.7467 181.637 43.784C181.637 41.2667 181.295 39.3253 180.613 37.96C179.93 36.5947 178.821 35.912 177.285 35.912C175.877 35.912 174.81 36.5947 174.085 37.96C173.402 39.2827 173.061 41.1173 173.061 43.464C173.061 45.7253 172.997 47.432 172.869 48.584C172.741 49.736 172.314 50.76 171.589 51.656C170.863 52.5093 169.669 52.936 168.005 52.936C165.573 52.936 163.866 51.3787 162.885 48.264C161.903 45.1067 161.413 41.416 161.413 37.192C161.413 26.952 163.567 21.832 167.877 21.832C169.071 21.832 170.053 22.1307 170.821 22.728C171.589 23.2827 172.122 24.0933 172.421 25.16C172.975 24.5627 173.829 24.0293 174.981 23.56C176.175 23.0907 177.434 22.856 178.757 22.856C183.45 22.856 186.949 24.5627 189.253 27.976C191.599 31.3893 192.773 36.0187 192.773 41.864C192.773 45.32 192.325 48.0507 191.429 50.056C190.533 52.0187 188.954 53 186.693 53ZM224.645 25.288C224.645 27.5067 223.599 29.0213 221.509 29.832C219.418 30.6 216.559 31.0053 212.933 31.048C212.89 32.1147 212.869 33.8427 212.869 36.232C212.869 38.664 213.039 40.392 213.381 41.416C213.594 42.1413 213.914 42.6107 214.341 42.824C214.81 43.0373 215.493 43.1867 216.389 43.272C216.687 43.3147 217.007 43.3787 217.349 43.464C217.733 43.5067 218.159 43.5707 218.629 43.656C219.61 43.8693 220.378 44.4027 220.933 45.256C221.487 46.0667 221.765 47.112 221.765 48.392C221.765 49.8427 221.018 50.9733 219.525 51.784C218.031 52.5947 215.983 53 213.381 53C210.991 53 208.709 52.3173 206.533 50.952C204.357 49.544 202.863 47.6667 202.053 45.32C201.199 42.8027 200.773 38.0453 200.773 31.048C197.786 30.9627 195.375 30.5787 193.541 29.896C191.748 29.1707 190.852 27.8907 190.852 26.056C190.852 23.752 191.706 22.216 193.413 21.448C195.119 20.6373 197.573 20.2107 200.773 20.168C200.901 16.7547 201.434 13.9173 202.373 11.656C203.311 9.352 204.997 8.2 207.429 8.2C209.903 8.2 211.503 9.26666 212.229 11.4C212.997 13.5333 213.338 16.456 213.253 20.168C217.135 20.1253 219.994 20.424 221.829 21.064C223.706 21.704 224.645 23.112 224.645 25.288ZM253.566 62.152C251.475 62.152 249.96 61.0853 249.022 58.952C248.083 56.8613 247.507 54.472 247.294 51.784C247.123 49.096 247.038 45.5547 247.038 41.16C247.038 37.7893 247.166 34.824 247.422 32.264C247.72 29.704 248.382 27.4853 249.406 25.608C250.43 23.7307 251.987 22.792 254.078 22.792C256.254 22.792 257.832 23.6453 258.814 25.352C259.795 24.6267 261.011 24.0507 262.462 23.624C263.955 23.1547 265.512 22.92 267.134 22.92C269.864 22.92 272.382 23.6027 274.686 24.968C276.99 26.3333 278.824 28.168 280.19 30.472C281.555 32.776 282.238 35.2933 282.238 38.024C282.238 40.7547 281.555 43.2933 280.19 45.64C278.824 47.944 276.99 49.7787 274.686 51.144C272.382 52.5093 269.864 53.192 267.134 53.192C265.47 53.192 263.912 52.9787 262.462 52.552C261.011 52.0827 259.774 51.464 258.75 50.696C258.75 53.4267 258.664 55.5387 258.494 57.032C258.323 58.5253 257.854 59.7413 257.086 60.68C256.36 61.6613 255.187 62.152 253.566 62.152ZM266.814 42.568C267.923 42.568 268.883 42.1627 269.694 41.352C270.547 40.4987 270.974 39.5173 270.974 38.408C270.974 37.2987 270.547 36.3387 269.694 35.528C268.883 34.6747 267.923 34.248 266.814 34.248C265.704 34.248 264.723 34.6747 263.87 35.528C263.059 36.3387 262.654 37.2987 262.654 38.408C262.654 39.5173 263.059 40.4987 263.87 41.352C264.723 42.1627 265.704 42.568 266.814 42.568ZM292.901 52.872C290.767 52.872 289.167 52.0827 288.101 50.504C287.034 48.9253 286.309 46.6 285.924 43.528C285.583 40.4133 285.413 36.0827 285.413 30.536C285.413 25.2027 285.541 21.0427 285.797 18.056C286.095 15.0693 286.778 12.68 287.845 10.888C288.954 9.096 290.661 8.2 292.965 8.2C295.269 8.2 296.954 9.096 298.021 10.888C299.13 12.68 299.813 15.0693 300.069 18.056C300.367 21.0427 300.517 25.2027 300.517 30.536C300.517 35.784 300.282 40.0293 299.812 43.272C299.386 46.472 298.618 48.8827 297.509 50.504C296.399 52.0827 294.863 52.872 292.901 52.872ZM313.995 53C310.667 53 307.936 52.2533 305.803 50.76C303.67 49.224 302.603 47.0267 302.603 44.168C302.603 41.6933 303.691 39.7307 305.867 38.28C308.043 36.8293 310.752 36.104 313.995 36.104C315.19 36.104 316.299 36.2107 317.323 36.424C318.39 36.5947 319.115 36.808 319.499 37.064C319.499 35.9973 319.051 35.1227 318.155 34.44C317.259 33.7147 315.894 33.352 314.059 33.352C313.248 33.352 312.587 33.416 312.075 33.544C311.563 33.672 311.008 33.864 310.411 34.12C309.814 34.376 309.259 34.568 308.747 34.696C308.278 34.824 307.638 34.888 306.827 34.888C305.462 34.888 304.395 34.5467 303.627 33.864C302.859 33.1387 302.475 32.0507 302.475 30.6C302.475 28.936 303.072 27.528 304.267 26.376C305.504 25.224 307.04 24.3707 308.875 23.816C310.71 23.2187 312.544 22.92 314.379 22.92C318.006 22.92 321.035 23.6027 323.467 24.968C325.942 26.2907 327.755 28.0613 328.907 30.28C330.102 32.4987 330.699 34.952 330.699 37.64C330.699 39.0907 330.571 40.4347 330.315 41.672C330.102 42.9093 329.803 43.8693 329.419 44.552C330.016 45.064 330.464 45.6613 330.763 46.344C331.104 47.0267 331.275 47.7307 331.275 48.456C331.275 49.6933 330.848 50.76 329.995 51.656C329.184 52.552 328.096 53 326.731 53C325.707 53 324.875 52.8507 324.235 52.552C323.595 52.2533 322.912 51.784 322.187 51.144C321.12 51.784 319.947 52.2533 318.667 52.552C317.43 52.8507 315.872 53 313.995 53ZM315.275 46.536C316.171 46.536 316.875 46.344 317.387 45.96C317.942 45.576 318.219 45.1067 318.219 44.552C318.219 43.9973 317.942 43.528 317.387 43.144C316.875 42.76 316.171 42.568 315.275 42.568C314.379 42.568 313.654 42.76 313.099 43.144C312.587 43.528 312.331 43.9973 312.331 44.552C312.331 45.1067 312.587 45.576 313.099 45.96C313.654 46.344 314.379 46.536 315.275 46.536ZM359.13 53C357.594 53 356.442 52.5733 355.674 51.72C354.949 50.8667 354.501 49.8213 354.33 48.584C354.159 47.3467 354.074 45.7467 354.074 43.784C354.074 41.2667 353.733 39.3253 353.05 37.96C352.367 36.5947 351.258 35.912 349.722 35.912C348.314 35.912 347.247 36.5947 346.522 37.96C345.839 39.2827 345.498 41.1173 345.498 43.464C345.498 45.7253 345.434 47.432 345.306 48.584C345.178 49.736 344.751 50.76 344.026 51.656C343.301 52.5093 342.106 52.936 340.442 52.936C338.01 52.936 336.303 51.3787 335.322 48.264C334.341 45.1067 333.85 41.416 333.85 37.192C333.85 26.952 336.005 21.832 340.314 21.832C341.509 21.832 342.49 22.1307 343.258 22.728C344.026 23.2827 344.559 24.0933 344.858 25.16C345.413 24.5627 346.266 24.0293 347.418 23.56C348.613 23.0907 349.871 22.856 351.194 22.856C355.887 22.856 359.386 24.5627 361.69 27.976C364.037 31.3893 365.21 36.0187 365.21 41.864C365.21 45.32 364.762 48.0507 363.866 50.056C362.97 52.0187 361.391 53 359.13 53ZM383.227 53C380.069 53 377.275 52.3813 374.843 51.144C372.411 49.9067 370.512 48.1787 369.147 45.96C367.824 43.6987 367.163 41.16 367.163 38.344C367.163 35.5707 367.824 33.0107 369.147 30.664C370.512 28.3173 372.389 26.44 374.779 25.032C377.168 23.624 379.877 22.92 382.907 22.92C385.637 22.92 388.048 23.4747 390.139 24.584C392.229 25.6933 393.829 27.1653 394.939 29C396.048 30.792 396.603 32.6693 396.603 34.632C396.603 37.832 395.387 40.1787 392.955 41.672C390.565 43.1227 387.707 43.848 384.378 43.848C382.16 43.848 380.283 43.5707 378.747 43.016C380.027 45.1067 382.139 46.152 385.083 46.152C386.277 46.152 387.557 46.0027 388.923 45.704C389.435 45.576 389.925 45.512 390.395 45.512C391.333 45.512 392.08 45.7467 392.635 46.216C393.232 46.6853 393.531 47.3253 393.531 48.136C393.531 49.4587 392.72 50.6107 391.099 51.592C389.477 52.5307 386.853 53 383.227 53ZM378.939 35.208C379.323 35.8053 379.835 36.2533 380.475 36.552C381.157 36.808 381.904 36.936 382.715 36.936C383.653 36.936 384.464 36.7227 385.147 36.296C385.872 35.8693 386.235 35.3147 386.235 34.632C386.235 33.864 385.915 33.2027 385.275 32.648C384.677 32.0933 383.803 31.816 382.651 31.816C381.499 31.816 380.581 32.1787 379.899 32.904C379.259 33.5867 378.939 34.3547 378.939 35.208ZM429.77 25.288C429.77 27.5067 428.724 29.0213 426.634 29.832C424.543 30.6 421.684 31.0053 418.058 31.048C418.015 32.1147 417.994 33.8427 417.994 36.232C417.994 38.664 418.164 40.392 418.506 41.416C418.719 42.1413 419.039 42.6107 419.466 42.824C419.935 43.0373 420.618 43.1867 421.514 43.272C421.812 43.3147 422.132 43.3787 422.474 43.464C422.858 43.5067 423.284 43.5707 423.754 43.656C424.735 43.8693 425.503 44.4027 426.058 45.256C426.612 46.0667 426.89 47.112 426.89 48.392C426.89 49.8427 426.143 50.9733 424.65 51.784C423.156 52.5947 421.108 53 418.506 53C416.116 53 413.834 52.3173 411.658 50.952C409.482 49.544 407.988 47.6667 407.178 45.32C406.324 42.8027 405.898 38.0453 405.898 31.048C402.911 30.9627 400.5 30.5787 398.666 29.896C396.873 29.1707 395.977 27.8907 395.977 26.056C395.977 23.752 396.831 22.216 398.538 21.448C400.244 20.6373 402.698 20.2107 405.898 20.168C406.026 16.7547 406.559 13.9173 407.498 11.656C408.436 9.352 410.122 8.2 412.554 8.2C415.028 8.2 416.628 9.26666 417.354 11.4C418.122 13.5333 418.463 16.456 418.378 20.168C422.26 20.1253 425.119 20.424 426.954 21.064C428.831 21.704 429.77 23.112 429.77 25.288Z" fill="#333333"/>
<defs>
<clipPath id="clip0_2103_443">
<rect width="63" height="63" fill="white" transform="translate(0 1)"/>
</clipPath>
</defs>
</svg>
