<svg height="512" viewBox="0 0 64 64" width="512" xmlns="http://www.w3.org/2000/svg"><g id="Layer_31" data-name="Layer 31"><g fill="#1d7147"><path d="m26.887 35.629-1.19-.842a38.354 38.354 0 0 0 -5.637-3.387l-2.76-1.1.74-1.858 2.833 1.129a40.174 40.174 0 0 1 5.992 3.586l1.178.843z"/><path d="m28.408 33.586-.569-1.244a31.238 31.238 0 0 0 -8.586-7.714l-2.672-1.49.975-1.746 2.7 1.508a33.277 33.277 0 0 1 9.244 8.319.948.948 0 0 1 .113.188l.617 1.345z"/><path d="m29.644 32.945-.426-1.418a50.512 50.512 0 0 0 -6.218-13.364l-1.554-2.227 1.641-1.145 1.569 2.25a52.553 52.553 0 0 1 6.478 13.914l.426 1.416z"/><path d="m33 32.482h-2v-4.263a85.389 85.389 0 0 1 .95-12.677l.29-2.079 1.981.275-.291 2.091a83.264 83.264 0 0 0 -.93 12.39z"/><path d="m36.636 34.063-1.91-.592.441-1.425 3.407-9.092 1.873.703-3.388 9.036z"/><path d="m37.916 36.712-1.662-1.111 1.037-1.552 4.739-7.584 1.696 1.06-4.756 7.61z"/><path d="m37.1 38.886-.93-1.772 2.262-1.187a24.243 24.243 0 0 1 7.673-2.614l2.2-.184.166 1.992-2.119.176a22.207 22.207 0 0 0 -6.976 2.394z"/></g><path d="m19.307 18.96a5.888 5.888 0 0 0 .693.04 6 6 0 1 0 -5.607-3.861" fill="#5d9d4d"/><path d="m18.893 25.779a7 7 0 1 0 -8.473 2.73" fill="#5d9d4d"/><path d="m43.912 20.785c-2.4-1.956-4.86-2.736-5.862-1.735-1.171 1.172.1 4.338 2.829 7.071s5.9 4 7.071 2.829c.619-.62.557-1.8-.043-3.173" fill="#5d9d4d"/><path d="m47.907 25.777-3.995-4.992c-1.812-1.485-3.666-2.285-4.892-2.154-.161 1.5 1.078 3.937 3.245 6.1s4.6 3.407 6.1 3.245a4.548 4.548 0 0 0 -.458-2.199z" fill="#7eba62"/><circle cx="32" cy="38" fill="#5d9d4d" r="7"/><circle cx="52" cy="36" fill="#5d9d4d" r="6"/><path d="m19.714 23.981a7 7 0 0 0 -8.783-8.67 7 7 0 0 0 -2.858 6.7 3.2 3.2 0 0 0 4.586 2.42 9.679 9.679 0 0 1 4.271-1.105 6.1 6.1 0 0 1 2.784.655z" fill="#7eba62"/><ellipse cx="14" cy="32" fill="#5d9d4d" rx="8" ry="5" transform="matrix(.707 -.707 .707 .707 -18.527 19.272)"/><circle cx="35" cy="9" fill="#5d9d4d" r="7"/><ellipse cx="50" cy="21" fill="#5d9d4d" rx="5" ry="8" transform="matrix(.707 -.707 .707 .707 -.205 41.506)"/><rect fill="#bc7e4f" height="4" rx="2" width="26" x="19" y="45"/><path d="m21 49 1.24 8.058a5.827 5.827 0 0 0 5.76 4.942h8a5.828 5.828 0 0 0 5.76-4.942l1.24-8.058z" fill="#825031"/><path d="m32 31a6.963 6.963 0 0 0 -3.846 1.154 7 7 0 0 0 9.692 9.692 7 7 0 0 0 -5.846-10.846z" fill="#7eba62"/><path d="m52 30a5.968 5.968 0 0 0 -3.119.881 5.992 5.992 0 0 0 8.238 8.238 5.992 5.992 0 0 0 -5.119-9.119z" fill="#7eba62"/><path d="m45.11 14.782c-1.137 2.133-.078 5.665 2.683 8.425s6.293 3.82 8.425 2.683c1.137-2.133.078-5.665-2.682-8.426s-6.293-3.819-8.426-2.682z" fill="#7eba62"/><path d="m35 2a6.963 6.963 0 0 0 -3.846 1.154 7 7 0 0 0 9.692 9.692 7 7 0 0 0 -5.846-10.846z" fill="#7eba62"/><path d="m19.657 26.343c-1.091-1.091-2.858-1.274-4.749-.68a12.459 12.459 0 0 0 -1.772 1.473c-3.124 3.124-4.074 7.24-2.121 9.193 1.091 1.091 2.857 1.274 4.749.68a12.571 12.571 0 0 0 1.772-1.473c3.124-3.125 4.073-7.236 2.121-9.193z" fill="#7eba62"/><path d="m20 7a6 6 0 0 0 -1.629.23 5.96 5.96 0 0 0 -2.147 6.377 9.043 9.043 0 0 1 4.784 4.3 5.763 5.763 0 0 0 2.621-.141 5.995 5.995 0 0 0 -3.629-10.766z" fill="#7eba62"/><path d="m43 45h-22a2 2 0 0 0 2 2h22a2 2 0 0 0 -2-2z" fill="#cd8b59"/><path d="m29.208 50a4.085 4.085 0 0 0 -3.968 5.058 5.827 5.827 0 0 0 5.76 4.942h8a5.762 5.762 0 0 0 1.581-.242 5.784 5.784 0 0 0 1.179-2.7l1.086-7.058z" fill="#956140"/></g></svg>