<svg width="356" height="54" viewBox="0 0 356 54" fill="none" xmlns="http://www.w3.org/2000/svg">
<path d="M6.5279 53.952C4.43724 53.952 2.92257 52.8854 1.9839 50.752C1.04524 48.6614 0.469236 46.272 0.255902 43.584C0.0852357 40.896 -9.76324e-05 37.3547 -9.76324e-05 32.96C-9.76324e-05 29.5894 0.127902 26.624 0.383902 24.064C0.682569 21.504 1.3439 19.2854 2.3679 17.408C3.3919 15.5307 4.94924 14.592 7.0399 14.592C9.2159 14.592 10.7946 15.4454 11.7759 17.152C12.7572 16.4267 13.9732 15.8507 15.4239 15.424C16.9172 14.9547 18.4746 14.72 20.0959 14.72C22.8266 14.72 25.3439 15.4027 27.6479 16.768C29.9519 18.1334 31.7866 19.968 33.1519 22.272C34.5172 24.576 35.1999 27.0934 35.1999 29.824C35.1999 32.5547 34.5172 35.0934 33.1519 37.44C31.7866 39.744 29.9519 41.5787 27.6479 42.944C25.3439 44.3094 22.8266 44.992 20.0959 44.992C18.4319 44.992 16.8746 44.7787 15.4239 44.352C13.9732 43.8827 12.7359 43.264 11.7119 42.496C11.7119 45.2267 11.6266 47.3387 11.4559 48.832C11.2852 50.3254 10.8159 51.5414 10.0479 52.48C9.32257 53.4614 8.14924 53.952 6.5279 53.952ZM19.7759 34.368C20.8852 34.368 21.8452 33.9627 22.6559 33.152C23.5092 32.2987 23.9359 31.3174 23.9359 30.208C23.9359 29.0987 23.5092 28.1387 22.6559 27.328C21.8452 26.4747 20.8852 26.048 19.7759 26.048C18.6666 26.048 17.6852 26.4747 16.8319 27.328C16.0212 28.1387 15.6159 29.0987 15.6159 30.208C15.6159 31.3174 16.0212 32.2987 16.8319 33.152C17.6852 33.9627 18.6666 34.368 19.7759 34.368ZM45.8629 44.672C43.7296 44.672 42.1296 43.8827 41.0629 42.304C39.9962 40.7254 39.2709 38.4 38.8869 35.328C38.5456 32.2134 38.3749 27.8827 38.3749 22.336C38.3749 17.0027 38.5029 12.8427 38.7589 9.85605C39.0576 6.86938 39.7402 4.48005 40.8069 2.68805C41.9162 0.896046 43.6229 4.57764e-05 45.9269 4.57764e-05C48.2309 4.57764e-05 49.9162 0.896046 50.9829 2.68805C52.0922 4.48005 52.7749 6.86938 53.0309 9.85605C53.3296 12.8427 53.4789 17.0027 53.4789 22.336C53.4789 27.584 53.2442 31.8294 52.7749 35.072C52.3482 38.272 51.5802 40.6827 50.4709 42.304C49.3616 43.8827 47.8256 44.672 45.8629 44.672ZM66.9574 44.8C63.6294 44.8 60.8987 44.0534 58.7654 42.56C56.6321 41.024 55.5654 38.8267 55.5654 35.968C55.5654 33.4934 56.6534 31.5307 58.8294 30.08C61.0054 28.6294 63.7147 27.904 66.9574 27.904C68.1521 27.904 69.2614 28.0107 70.2854 28.224C71.3521 28.3947 72.0774 28.608 72.4614 28.864C72.4614 27.7974 72.0134 26.9227 71.1174 26.24C70.2214 25.5147 68.8561 25.152 67.0214 25.152C66.2107 25.152 65.5494 25.216 65.0374 25.344C64.5254 25.472 63.9707 25.664 63.3734 25.92C62.7761 26.176 62.2214 26.368 61.7094 26.496C61.2401 26.624 60.6001 26.688 59.7894 26.688C58.4241 26.688 57.3574 26.3467 56.5894 25.664C55.8214 24.9387 55.4374 23.8507 55.4374 22.4C55.4374 20.736 56.0347 19.328 57.2294 18.176C58.4667 17.024 60.0027 16.1707 61.8374 15.616C63.6721 15.0187 65.5067 14.72 67.3414 14.72C70.9681 14.72 73.9974 15.4027 76.4294 16.768C78.9041 18.0907 80.7174 19.8614 81.8694 22.08C83.0641 24.2987 83.6614 26.752 83.6614 29.44C83.6614 30.8907 83.5334 32.2347 83.2774 33.472C83.0641 34.7094 82.7654 35.6694 82.3814 36.352C82.9787 36.864 83.4267 37.4614 83.7254 38.144C84.0667 38.8267 84.2374 39.5307 84.2374 40.256C84.2374 41.4934 83.8107 42.56 82.9574 43.456C82.1467 44.352 81.0587 44.8 79.6934 44.8C78.6694 44.8 77.8374 44.6507 77.1974 44.352C76.5574 44.0534 75.8747 43.584 75.1494 42.944C74.0827 43.584 72.9094 44.0534 71.6294 44.352C70.3921 44.6507 68.8347 44.8 66.9574 44.8ZM68.2374 38.336C69.1334 38.336 69.8374 38.144 70.3494 37.76C70.9041 37.376 71.1814 36.9067 71.1814 36.352C71.1814 35.7974 70.9041 35.328 70.3494 34.944C69.8374 34.56 69.1334 34.368 68.2374 34.368C67.3414 34.368 66.6161 34.56 66.0614 34.944C65.5494 35.328 65.2934 35.7974 65.2934 36.352C65.2934 36.9067 65.5494 37.376 66.0614 37.76C66.6161 38.144 67.3414 38.336 68.2374 38.336ZM112.092 44.8C110.556 44.8 109.404 44.3734 108.636 43.52C107.911 42.6667 107.463 41.6214 107.292 40.384C107.122 39.1467 107.036 37.5467 107.036 35.584C107.036 33.0667 106.695 31.1254 106.012 29.76C105.33 28.3947 104.22 27.712 102.684 27.712C101.276 27.712 100.21 28.3947 99.4844 29.76C98.8017 31.0827 98.4604 32.9174 98.4604 35.264C98.4604 37.5254 98.3964 39.232 98.2684 40.384C98.1404 41.536 97.7137 42.56 96.9884 43.456C96.2631 44.3094 95.0684 44.736 93.4044 44.736C90.9724 44.736 89.2657 43.1787 88.2844 40.064C87.3031 36.9067 86.8124 33.216 86.8124 28.992C86.8124 18.752 88.9671 13.632 93.2764 13.632C94.4711 13.632 95.4524 13.9307 96.2204 14.528C96.9884 15.0827 97.5217 15.8934 97.8204 16.96C98.3751 16.3627 99.2284 15.8294 100.38 15.36C101.575 14.8907 102.834 14.656 104.156 14.656C108.85 14.656 112.348 16.3627 114.652 19.776C116.999 23.1894 118.172 27.8187 118.172 33.664C118.172 37.12 117.724 39.8507 116.828 41.856C115.932 43.8187 114.354 44.8 112.092 44.8ZM150.044 17.088C150.044 19.3067 148.999 20.8214 146.908 21.632C144.818 22.4 141.959 22.8054 138.332 22.848C138.29 23.9147 138.268 25.6427 138.268 28.032C138.268 30.464 138.439 32.192 138.78 33.216C138.994 33.9414 139.314 34.4107 139.74 34.624C140.21 34.8374 140.892 34.9867 141.788 35.072C142.087 35.1147 142.407 35.1787 142.748 35.264C143.132 35.3067 143.559 35.3707 144.028 35.456C145.01 35.6694 145.778 36.2027 146.332 37.056C146.887 37.8667 147.164 38.912 147.164 40.192C147.164 41.6427 146.418 42.7734 144.924 43.584C143.431 44.3947 141.383 44.8 138.78 44.8C136.391 44.8 134.108 44.1174 131.932 42.752C129.756 41.344 128.263 39.4667 127.452 37.12C126.599 34.6027 126.172 29.8454 126.172 22.848C123.186 22.7627 120.775 22.3787 118.94 21.696C117.148 20.9707 116.252 19.6907 116.252 17.856C116.252 15.552 117.106 14.016 118.812 13.248C120.519 12.4374 122.972 12.0107 126.172 11.968C126.3 8.55471 126.834 5.71738 127.772 3.45605C128.711 1.15205 130.396 4.57764e-05 132.828 4.57764e-05C135.303 4.57764e-05 136.903 1.06671 137.628 3.20005C138.396 5.33338 138.738 8.25605 138.652 11.968C142.535 11.9254 145.394 12.224 147.228 12.864C149.106 13.504 150.044 14.912 150.044 17.088ZM178.965 53.952C176.875 53.952 175.36 52.8854 174.421 50.752C173.483 48.6614 172.907 46.272 172.693 43.584C172.523 40.896 172.437 37.3547 172.437 32.96C172.437 29.5894 172.565 26.624 172.821 24.064C173.12 21.504 173.781 19.2854 174.805 17.408C175.829 15.5307 177.387 14.592 179.477 14.592C181.653 14.592 183.232 15.4454 184.213 17.152C185.195 16.4267 186.411 15.8507 187.861 15.424C189.355 14.9547 190.912 14.72 192.533 14.72C195.264 14.72 197.781 15.4027 200.085 16.768C202.389 18.1334 204.224 19.968 205.589 22.272C206.955 24.576 207.637 27.0934 207.637 29.824C207.637 32.5547 206.955 35.0934 205.589 37.44C204.224 39.744 202.389 41.5787 200.085 42.944C197.781 44.3094 195.264 44.992 192.533 44.992C190.869 44.992 189.312 44.7787 187.861 44.352C186.411 43.8827 185.173 43.264 184.149 42.496C184.149 45.2267 184.064 47.3387 183.893 48.832C183.723 50.3254 183.253 51.5414 182.485 52.48C181.76 53.4614 180.587 53.952 178.965 53.952ZM192.213 34.368C193.323 34.368 194.283 33.9627 195.093 33.152C195.947 32.2987 196.373 31.3174 196.373 30.208C196.373 29.0987 195.947 28.1387 195.093 27.328C194.283 26.4747 193.323 26.048 192.213 26.048C191.104 26.048 190.123 26.4747 189.269 27.328C188.459 28.1387 188.053 29.0987 188.053 30.208C188.053 31.3174 188.459 32.2987 189.269 33.152C190.123 33.9627 191.104 34.368 192.213 34.368ZM218.3 44.672C216.167 44.672 214.567 43.8827 213.5 42.304C212.434 40.7254 211.708 38.4 211.324 35.328C210.983 32.2134 210.812 27.8827 210.812 22.336C210.812 17.0027 210.94 12.8427 211.196 9.85605C211.495 6.86938 212.178 4.48005 213.244 2.68805C214.354 0.896046 216.06 4.57764e-05 218.364 4.57764e-05C220.668 4.57764e-05 222.354 0.896046 223.42 2.68805C224.53 4.48005 225.212 6.86938 225.468 9.85605C225.767 12.8427 225.916 17.0027 225.916 22.336C225.916 27.584 225.682 31.8294 225.212 35.072C224.786 38.272 224.018 40.6827 222.908 42.304C221.799 43.8827 220.263 44.672 218.3 44.672ZM239.395 44.8C236.067 44.8 233.336 44.0534 231.203 42.56C229.07 41.024 228.003 38.8267 228.003 35.968C228.003 33.4934 229.091 31.5307 231.267 30.08C233.443 28.6294 236.152 27.904 239.395 27.904C240.59 27.904 241.699 28.0107 242.723 28.224C243.79 28.3947 244.515 28.608 244.899 28.864C244.899 27.7974 244.451 26.9227 243.555 26.24C242.659 25.5147 241.294 25.152 239.459 25.152C238.648 25.152 237.987 25.216 237.475 25.344C236.963 25.472 236.408 25.664 235.811 25.92C235.214 26.176 234.659 26.368 234.147 26.496C233.678 26.624 233.038 26.688 232.227 26.688C230.862 26.688 229.795 26.3467 229.027 25.664C228.259 24.9387 227.875 23.8507 227.875 22.4C227.875 20.736 228.472 19.328 229.667 18.176C230.904 17.024 232.44 16.1707 234.275 15.616C236.11 15.0187 237.944 14.72 239.779 14.72C243.406 14.72 246.435 15.4027 248.867 16.768C251.342 18.0907 253.155 19.8614 254.307 22.08C255.502 24.2987 256.099 26.752 256.099 29.44C256.099 30.8907 255.971 32.2347 255.715 33.472C255.502 34.7094 255.203 35.6694 254.819 36.352C255.416 36.864 255.864 37.4614 256.163 38.144C256.504 38.8267 256.675 39.5307 256.675 40.256C256.675 41.4934 256.248 42.56 255.395 43.456C254.584 44.352 253.496 44.8 252.131 44.8C251.107 44.8 250.275 44.6507 249.635 44.352C248.995 44.0534 248.312 43.584 247.587 42.944C246.52 43.584 245.347 44.0534 244.067 44.352C242.83 44.6507 241.272 44.8 239.395 44.8ZM240.675 38.336C241.571 38.336 242.275 38.144 242.787 37.76C243.342 37.376 243.619 36.9067 243.619 36.352C243.619 35.7974 243.342 35.328 242.787 34.944C242.275 34.56 241.571 34.368 240.675 34.368C239.779 34.368 239.054 34.56 238.499 34.944C237.987 35.328 237.731 35.7974 237.731 36.352C237.731 36.9067 237.987 37.376 238.499 37.76C239.054 38.144 239.779 38.336 240.675 38.336ZM284.53 44.8C282.994 44.8 281.842 44.3734 281.074 43.52C280.349 42.6667 279.901 41.6214 279.73 40.384C279.559 39.1467 279.474 37.5467 279.474 35.584C279.474 33.0667 279.133 31.1254 278.45 29.76C277.767 28.3947 276.658 27.712 275.122 27.712C273.714 27.712 272.647 28.3947 271.922 29.76C271.239 31.0827 270.898 32.9174 270.898 35.264C270.898 37.5254 270.834 39.232 270.706 40.384C270.578 41.536 270.151 42.56 269.426 43.456C268.701 44.3094 267.506 44.736 265.842 44.736C263.41 44.736 261.703 43.1787 260.722 40.064C259.741 36.9067 259.25 33.216 259.25 28.992C259.25 18.752 261.405 13.632 265.714 13.632C266.909 13.632 267.89 13.9307 268.658 14.528C269.426 15.0827 269.959 15.8934 270.258 16.96C270.813 16.3627 271.666 15.8294 272.818 15.36C274.013 14.8907 275.271 14.656 276.594 14.656C281.287 14.656 284.786 16.3627 287.09 19.776C289.437 23.1894 290.61 27.8187 290.61 33.664C290.61 37.12 290.162 39.8507 289.266 41.856C288.37 43.8187 286.791 44.8 284.53 44.8ZM308.626 44.8C305.469 44.8 302.674 44.1814 300.242 42.944C297.81 41.7067 295.912 39.9787 294.546 37.76C293.224 35.4987 292.562 32.96 292.562 30.144C292.562 27.3707 293.224 24.8107 294.546 22.464C295.912 20.1174 297.789 18.24 300.178 16.832C302.568 15.424 305.277 14.72 308.306 14.72C311.037 14.72 313.448 15.2747 315.538 16.384C317.629 17.4934 319.229 18.9654 320.338 20.8C321.448 22.592 322.002 24.4694 322.002 26.432C322.002 29.632 320.786 31.9787 318.354 33.472C315.965 34.9227 313.106 35.648 309.778 35.648C307.56 35.648 305.682 35.3707 304.146 34.816C305.426 36.9067 307.538 37.952 310.482 37.952C311.677 37.952 312.957 37.8027 314.322 37.504C314.834 37.376 315.325 37.312 315.794 37.312C316.733 37.312 317.48 37.5467 318.034 38.016C318.632 38.4854 318.93 39.1254 318.93 39.936C318.93 41.2587 318.12 42.4107 316.498 43.392C314.877 44.3307 312.253 44.8 308.626 44.8ZM304.338 27.008C304.722 27.6054 305.234 28.0534 305.874 28.352C306.557 28.608 307.304 28.736 308.114 28.736C309.053 28.736 309.864 28.5227 310.546 28.096C311.272 27.6694 311.634 27.1147 311.634 26.432C311.634 25.664 311.314 25.0027 310.674 24.448C310.077 23.8934 309.202 23.616 308.05 23.616C306.898 23.616 305.981 23.9787 305.298 24.704C304.658 25.3867 304.338 26.1547 304.338 27.008ZM355.169 17.088C355.169 19.3067 354.124 20.8214 352.033 21.632C349.943 22.4 347.084 22.8054 343.457 22.848C343.415 23.9147 343.393 25.6427 343.393 28.032C343.393 30.464 343.564 32.192 343.905 33.216C344.119 33.9414 344.439 34.4107 344.865 34.624C345.335 34.8374 346.017 34.9867 346.913 35.072C347.212 35.1147 347.532 35.1787 347.873 35.264C348.257 35.3067 348.684 35.3707 349.153 35.456C350.135 35.6694 350.903 36.2027 351.457 37.056C352.012 37.8667 352.289 38.912 352.289 40.192C352.289 41.6427 351.543 42.7734 350.049 43.584C348.556 44.3947 346.508 44.8 343.905 44.8C341.516 44.8 339.233 44.1174 337.057 42.752C334.881 41.344 333.388 39.4667 332.577 37.12C331.724 34.6027 331.297 29.8454 331.297 22.848C328.311 22.7627 325.9 22.3787 324.065 21.696C322.273 20.9707 321.377 19.6907 321.377 17.856C321.377 15.552 322.231 14.016 323.937 13.248C325.644 12.4374 328.097 12.0107 331.297 11.968C331.425 8.55471 331.959 5.71738 332.897 3.45605C333.836 1.15205 335.521 4.57764e-05 337.953 4.57764e-05C340.428 4.57764e-05 342.028 1.06671 342.753 3.20005C343.521 5.33338 343.863 8.25605 343.777 11.968C347.66 11.9254 350.519 12.224 352.353 12.864C354.231 13.504 355.169 14.912 355.169 17.088Z" fill="#333333"/>
</svg>
