<svg height="512" viewBox="0 0 64 64" width="512" xmlns="http://www.w3.org/2000/svg"><g id="Layer_8" data-name="Layer 8"><path d="m47.348 12.752-1.44-1.388 1.592-1.646a19.99 19.99 0 0 1 2.286-1.932l1.48-1.036 1.146 1.64-1.472 1.026a17.919 17.919 0 0 0 -2.025 1.71z" fill="#1d7147"/><path d="m28.187 19.981-1.471-1.355 1.113-1.209a12.6 12.6 0 0 1 3.989-2.731l1.659-.623.7 1.874-1.613.6a10.508 10.508 0 0 0 -3.29 2.258z" fill="#1d7147"/><path d="m32.217 14.731-1.736-.731a15.453 15.453 0 0 0 -4.337-.958l-2.361-.237.2-1.991 2.334.236a17.479 17.479 0 0 1 4.908 1.094l1.767.744z" fill="#1d7147"/><path d="m40.33 23.068-1.646-1.136 1.084-1.571a13.3 13.3 0 0 0 2.14-5.8l.092-1.251 2 .152-.1 1.292a15.352 15.352 0 0 1 -2.476 6.731z" fill="#1d7147"/><path d="m41.7 26.3-1.654-1.124 1.03-1.517a8.447 8.447 0 0 1 4.235-3.213l1.352-.359.51 1.934-1.286.339a6.393 6.393 0 0 0 -3.158 2.425z" fill="#1d7147"/><path d="m53.778 28.958-2.263-.677a36.017 36.017 0 0 0 -8.542-1.268l-2.208-.075.068-2 2.2.075a38.058 38.058 0 0 1 9.032 1.344l2.287.684z" fill="#1d7147"/><path d="m52.528 26.646-6.461-4.846a2.666 2.666 0 0 1 -1.067-2.133 2.667 2.667 0 0 1 2.667-2.667h1.333l.21-.419a2.858 2.858 0 0 1 2.557-1.581 2.861 2.861 0 0 1 2.775 2.166l.174.7a9.479 9.479 0 0 1 .284 2.304 9.5 9.5 0 0 1 -.68 3.529l-1.013 2.535z" fill="#5d9d4d"/><path d="m24.241 35.7a26.953 26.953 0 0 1 -1.241-8.085v-2.485l.255-.929-1.93-.529-.254.929h-.071v.258l-.557 2.033a21.857 21.857 0 0 1 -3.135 6.086 5.655 5.655 0 0 1 -2.817-.893l-1.562-1.2-1.219 1.583 1.619 1.243a7.685 7.685 0 0 0 2.5 1.063 22.09 22.09 0 0 1 -2.94 2.712l-2.027 1.59 1.238 1.573 2.015-1.581a23.8 23.8 0 0 0 7.038-8.643 29.019 29.019 0 0 0 1.185 5.89l.664 2 1.9-.63z" fill="#1d7147"/><path d="m13 28a3.618 3.618 0 0 1 2 3.236 1.764 1.764 0 0 1 -1.764 1.764 27.185 27.185 0 0 0 -10.1 1.945l-.136.055 3.1-7.751a3.577 3.577 0 0 1 3.322-2.249 3.577 3.577 0 0 1 3.393 2.446z" fill="#5d9d4d"/><path d="m13.236 33a1.764 1.764 0 0 0 1.764-1.764 3.618 3.618 0 0 0 -2-3.236l-.185-.554a3.571 3.571 0 0 0 -2.4-2.3 3.574 3.574 0 0 0 -2.314 2.1l-2.773 6.935a27.165 27.165 0 0 1 7.908-1.181z" fill="#7eba62"/><path d="m11 38-.21-.419a2.858 2.858 0 0 0 -2.557-1.581 2.861 2.861 0 0 0 -2.775 2.166l-.174.7a9.479 9.479 0 0 0 -.284 2.304 9.5 9.5 0 0 0 .68 3.53l1.32 3.3 6.933-5.2a2.666 2.666 0 0 0 1.067-2.133 2.667 2.667 0 0 0 -2.667-2.667z" fill="#5d9d4d"/><path d="m12.333 38h-1.333l-.21-.419a2.858 2.858 0 0 0 -2.557-1.581c-.06 0-.117.011-.176.015a2.858 2.858 0 0 0 -.6 1.151l-.174.7a9.5 9.5 0 0 0 .4 5.834 2.713 2.713 0 0 0 2.808 1.685l3.442-2.585a2.667 2.667 0 0 0 -1.6-4.8z" fill="#7eba62"/><path d="m56 34-1.643 23.012a5.371 5.371 0 0 1 -5.357 4.988h-14a5.371 5.371 0 0 1 -5.357-4.988l-1.643-23.012z" fill="#825031"/><path d="m39.616 36a7.9 7.9 0 0 0 -7.874 8.584l.9 10.428a5.371 5.371 0 0 0 5.358 4.988h14a5.307 5.307 0 0 0 1.323-.185 5.352 5.352 0 0 0 1.034-2.8l1.5-21.015z" fill="#956140"/><path d="m20 39a3.618 3.618 0 0 0 -2 3.236 1.764 1.764 0 0 0 1.764 1.764 27.185 27.185 0 0 1 10.1 1.945l.136.055-3.1-7.751a3.577 3.577 0 0 0 -3.322-2.249 3.577 3.577 0 0 0 -3.393 2.446z" fill="#5d9d4d"/><path d="m28.9 43.254-2-5a3.576 3.576 0 0 0 -6.714.2l-.186.546a3.586 3.586 0 0 0 -.96.709 3.545 3.545 0 0 0 -.04.527 1.764 1.764 0 0 0 1.764 1.764 27.2 27.2 0 0 1 8.136 1.254z" fill="#7eba62"/><path d="m19.7 16.569a3.963 3.963 0 0 0 -.609 1.153 21.285 21.285 0 0 0 -1.091 6.733v5.545l2.709-2.257a15.1 15.1 0 0 1 7.532-3.349 3.213 3.213 0 0 0 2.759-3.181 3.214 3.214 0 0 0 -3.213-3.213h-.787l-.818-1.227a3.992 3.992 0 0 0 -.642-.744l-3.54-1.029z" fill="#5d9d4d"/><path d="m20.709 27.743a15.1 15.1 0 0 1 7.532-3.349 3.213 3.213 0 0 0 -.454-6.394h-.787l-.818-1.227a3.992 3.992 0 0 0 -.642-.744l-3.165-.92-.673.46a3.963 3.963 0 0 0 -.609 1.153 21.285 21.285 0 0 0 -1.093 6.733v4.878z" fill="#7eba62"/><path d="m25 11a3.618 3.618 0 0 1 2 3.236 1.764 1.764 0 0 1 -1.764 1.764 27.185 27.185 0 0 0 -10.1 1.945l-.136.055 3.1-7.751a3.577 3.577 0 0 1 3.322-2.249 3.577 3.577 0 0 1 3.393 2.446z" fill="#5d9d4d"/><path d="m25 11-.185-.554a3.576 3.576 0 0 0 -6.714-.2l-.637 1.591a5.307 5.307 0 0 0 4.849 3.163h4.506a1.736 1.736 0 0 0 .181-.764 3.618 3.618 0 0 0 -2-3.236z" fill="#7eba62"/><path d="m39 30a4 4 0 0 0 4-4 2 2 0 0 0 -2-2v-1.513a3.487 3.487 0 0 0 -3.487-3.487 3.487 3.487 0 0 0 -3.308 2.384l-1.065 3.2a10.51 10.51 0 0 1 -4.14 5.416z" fill="#5d9d4d"/><path d="m41 24v-1.513a3.487 3.487 0 0 0 -6.8-1.1l-1.065 3.2-.012.032a7.255 7.255 0 0 0 6.143 3.381h3.179a3.955 3.955 0 0 0 .555-2 2 2 0 0 0 -2-2z" fill="#7eba62"/><path d="m39.394 13.474a15.065 15.065 0 0 0 6.606 1.526 3 3 0 0 0 3-3 2 2 0 0 0 -2-2v-.892a3.109 3.109 0 0 0 -3.108-3.108 3.116 3.116 0 0 0 -1.648.472l-1.821 1.139-5.423 2.389z" fill="#5d9d4d"/><path d="m47 10v-.892a3.109 3.109 0 0 0 -4.756-2.636l-.135.085a5.488 5.488 0 0 1 -.516 6.667 4.831 4.831 0 0 1 .329 1.189 15.027 15.027 0 0 0 4.078.587 3 3 0 0 0 3-3 2 2 0 0 0 -2-2z" fill="#7eba62"/><path d="m39 13 .968-.968a3.523 3.523 0 0 0 1.032-2.492 3.523 3.523 0 0 0 -2.41-3.34 23.31 23.31 0 0 0 -7.374-1.2h-5.216l2.09 3.134a37.652 37.652 0 0 1 3.267 6.032 6.326 6.326 0 0 0 5.815 3.834 2.828 2.828 0 0 0 2.828-2.828 2.828 2.828 0 0 0 -.828-2z" fill="#5d9d4d"/><path d="m39.172 13.172-.172-.172.968-.968a3.524 3.524 0 0 0 -1.378-5.832 23.31 23.31 0 0 0 -7.374-1.2h-1.883l.756 1.134a37.578 37.578 0 0 1 3.268 6.032 6.326 6.326 0 0 0 5.815 3.834 2.788 2.788 0 0 0 .728-.1 2.788 2.788 0 0 0 .1-.723 2.828 2.828 0 0 0 -.828-2.005z" fill="#7eba62"/><path d="m51 9a3.618 3.618 0 0 1 -2-3.236 1.764 1.764 0 0 1 1.764-1.764 27.185 27.185 0 0 0 10.1-1.945l.136-.055-3.1 7.751a3.577 3.577 0 0 1 -3.322 2.249 3.577 3.577 0 0 1 -3.393-2.446z" fill="#5d9d4d"/><path d="m59.143 2.743a22.168 22.168 0 0 1 -8.375 1.257 1.747 1.747 0 0 0 -.74.165 3.62 3.62 0 0 0 1.61 2.627 1.181 1.181 0 0 1 .494.6 3.728 3.728 0 0 0 2.173 2.376 3.585 3.585 0 0 0 4.005-1.042l2.69-6.726z" fill="#7eba62"/><path d="m54.716 17.865-.174-.7a2.86 2.86 0 0 0 -5.332-.585l-.21.42h-1.333a2.689 2.689 0 0 0 -.478.048 2.647 2.647 0 0 0 .878 3.106l5.9 4.426.352-.881a9.5 9.5 0 0 0 .4-5.834z" fill="#7eba62"/><rect fill="#bc7e4f" height="4" rx="2" width="32" x="26" y="30"/><path d="m56 30h-27a2 2 0 0 0 2 2h27a2 2 0 0 0 -2-2z" fill="#cd8b59"/><path d="m51 29a3.618 3.618 0 0 0 -2 3.236 1.764 1.764 0 0 0 1.764 1.764 27.185 27.185 0 0 1 10.1 1.945l.136.055-3.1-7.751a3.577 3.577 0 0 0 -3.322-2.249 3.577 3.577 0 0 0 -3.393 2.446z" fill="#5d9d4d"/><path d="m54.578 26a3.577 3.577 0 0 0 -3.393 2.446l-.185.554a3.61 3.61 0 0 0 -1.792 2.051 1.756 1.756 0 0 0 1.556.949 27.187 27.187 0 0 1 9.294 1.645l-2.159-5.4a3.577 3.577 0 0 0 -3.321-2.245z" fill="#7eba62"/><g fill="#5d9d4d"><path d="m41 22.58-.707.713a11.048 11.048 0 0 1 -4.293 2.653l-.316.1.632 1.9.317-.106a13.042 13.042 0 0 0 5.077-3.14l.376-.38a1.989 1.989 0 0 0 -1.086-.32z"/><path d="m50.572 20.412.458 1.831 1.94-.486-.457-1.83a5.842 5.842 0 0 0 -3.013-3.795 2.78 2.78 0 0 0 -.286.449l-.214.419h-1.333a2.663 2.663 0 0 0 -.641.086l1.527.809a3.854 3.854 0 0 1 2.019 2.517z"/><path d="m53.707 31.121.586.586 1.414-1.414-.586-.586a5.871 5.871 0 0 0 -3.755-1.689 3.52 3.52 0 0 0 -.181.428l-.185.554a3.609 3.609 0 0 0 -1.22 1h1.22a3.857 3.857 0 0 1 2.707 1.121z"/><path d="m46.342 9.211a7.512 7.512 0 0 1 -3.342.789v2a9.521 9.521 0 0 0 4.236-1l1.02-.545a1.981 1.981 0 0 0 -1.256-.455v-.892c0-.079-.018-.153-.023-.231l-.424.228z"/><path d="m22.928 20.306-.76 1.139 1.664 1.11.76-1.14a7.419 7.419 0 0 1 2.845-2.515l1.438-.7a3.193 3.193 0 0 0 -1.088-.2h-.787l-.555-.832a9.428 9.428 0 0 0 -3.517 3.138z"/><path d="m7.488 40.927-.458 1.83 1.94.486.459-1.831a3.848 3.848 0 0 1 2.017-2.512l1.586-.791a2.642 2.642 0 0 0 -.7-.1h-1.332l-.21-.419a2.836 2.836 0 0 0 -.285-.448 5.849 5.849 0 0 0 -3.017 3.785z"/><path d="m13 28-.185-.554a3.52 3.52 0 0 0 -.181-.428 5.871 5.871 0 0 0 -3.755 1.689l-.586.586 1.414 1.414.586-.586a3.857 3.857 0 0 1 2.707-1.121h1.22a3.609 3.609 0 0 0 -1.22-1z"/><path d="m22.707 41.121.586.586 1.414-1.414-.586-.586a5.871 5.871 0 0 0 -3.755-1.689 3.52 3.52 0 0 0 -.181.428l-.185.554a3.609 3.609 0 0 0 -1.22 1h1.22a3.857 3.857 0 0 1 2.707 1.121z"/><path d="m20.293 12.293 1.414 1.414.586-.586a3.857 3.857 0 0 1 2.707-1.121h1.22a3.609 3.609 0 0 0 -1.22-1l-.185-.554a3.52 3.52 0 0 0 -.181-.428 5.871 5.871 0 0 0 -3.755 1.689z"/><path d="m51 9 .185.554a3.52 3.52 0 0 0 .181.428 5.871 5.871 0 0 0 3.755-1.689l.586-.586-1.414-1.414-.586.586a3.857 3.857 0 0 1 -2.707 1.121h-1.22a3.609 3.609 0 0 0 1.22 1z"/><path d="m39.172 13.172-.172-.172.707-.707a13.038 13.038 0 0 0 -5.074-3.136l-.317-.106-.632 1.9.316.105a11.078 11.078 0 0 1 4.313 2.673l1.673 1.581c0-.046.014-.09.014-.136a2.828 2.828 0 0 0 -.828-2.002z"/></g></g></svg>