<svg id="Capa_1" enable-background="new 0 0 512 512" height="512" viewBox="0 0 512 512" width="512" xmlns="http://www.w3.org/2000/svg"><g><path d="m286.188 125.044c-.01 1.7-.072 3.194-.165 4.461-.227 3.224-.628 5.017-.628 5.017s-41.516 10.59-86.731-33.254c-31.791-30.844-26.846-51.21-21.108-60.575 2.411-3.946 4.965-5.944 4.965-5.944s1.916-2.617 5.79-5.151c9.179-6.016 29.391-11.59 61.193 19.254 32.172 31.215 36.725 61.389 36.684 76.192z" fill="#d1f19e"/><path d="m249.501 48.855c-28.223-27.374-47.309-26.066-57.667-21.219 8.687 3.225 18.969 9.665 30.881 21.219 43.206 41.906 36.613 81.956 35.943 85.424 16.215 2.928 26.737.247 26.737.247s9.316-41.822-35.894-85.671z" fill="#bbec6c"/><g><path d="m259.166 118.976-81.611-78.283c2.411-3.946 4.965-5.944 4.965-5.944s1.916-2.617 5.79-5.151l63.974 61.358s16.451 18.997 13.731 25.771c-.671 1.672-6.849 2.249-6.849 2.249z" fill="#bbec6c"/></g><path d="m286.023 129.505c-.34 1.051-.927 2.029-1.751 2.885-1.514 1.566-3.534 2.349-5.553 2.349-1.937 0-3.874-.721-5.378-2.174l-14.175-13.588c-.567-7.428-2.349-17.08-6.882-28.021l31.802 30.503c1.051 1.02 1.751 2.267 2.102 3.585.381 1.463.34 3.019-.165 4.461z" fill="#a2e62e"/><path d="m375.195 82.755c-43.041 54.27-89.831 48.655-89.831 48.655s-16.133-44.277 26.908-98.547c30.936-39.023 54.105-34.83 64.675-29.401 4.131 2.133 6.346 4.45 6.346 4.45s2.761 1.628 5.759 5.161c7.715 9.056 17.08 30.659-13.857 69.682z" fill="#bbec6c"/><path d="m383.292 7.914s-12.919-13.528-34.695-5.191c5.136 2.289 7.908 5.191 7.908 5.191s34.937 20.562-8.1 74.837c-22.753 28.695-46.552 40.647-63.933 45.541.501 2.035.896 3.118.896 3.118s46.787 5.617 89.824-48.659 8.1-74.837 8.1-74.837z" fill="#a2e62e"/><path d="m377.215 17.817-7.366 18.477-70.464 85.165c-1.535 1.927-3.791 2.926-6.068 2.926-1.679 0-3.369-.546-4.79-1.669-3.348-2.658-3.904-7.51-1.257-10.858l78.108-94.416s8.839-3.158 11.837.375z" fill="#d1f19e"/><path d="m369.849 36.294c.33-8.138-1.803-14.35-4.471-18.852l11.569-13.98c4.131 2.133 6.346 4.45 6.346 4.45s2.761 1.628 5.759 5.161z" fill="#bbec6c"/><path d="m272.17 117.912s.01 106.297.031 170.917h27.822v-170.917c0-7.696-6.231-13.927-13.927-13.927-7.695 0-13.926 6.231-13.926 13.927z" fill="#80d261"/><path d="m370.337 175.75s-3.693-18.775-34.595-8.097-35.718 32.393-35.718 32.393 17.194 14.11 48.096 3.432 22.217-27.728 22.217-27.728z" fill="#d1f19e"/><path d="m370.337 175.75s-3.693-18.775-34.595-8.097-35.718 32.393-35.718 32.393 17.194 14.11 48.096 3.432 22.217-27.728 22.217-27.728z" fill="#d1f19e"/><path d="m370.337 175.75s-3.693-18.775-34.595-8.097-35.718 32.393-35.718 32.393 17.194 14.11 48.096 3.432 22.217-27.728 22.217-27.728z" fill="#bbec6c"/><path d="m174.454 326.921 31.824 34.335 170.829-29.834 18.382-41.936-51.617-30.899c-6.894-4.127-15.315-4.814-22.787-1.86l-15.394 6.086c-3.343 1.322-7.13.847-10.044-1.259l-46.634-33.701c-8.432-6.094-19.694-6.54-28.582-1.134l-47.524 28.908z" fill="#c59191"/><path d="m222.224 227.848c-.577-.412-1.154-.804-1.751-1.164 8.88-5.367 20.119-4.914 28.536 1.164l46.638 33.707h-19.956c-4.441 0-8.768-1.4-12.367-4.001z" fill="#b98080"/><path d="m395.49 289.483-18.383 41.939h-41.192l22.71-29.046c5.353-6.846 3.494-16.834-3.962-21.297l-37.579-22.491c-.093-.062-.196-.113-.288-.165l4.286-1.7c7.479-2.946 15.896-2.266 22.788 1.865z" fill="#b98080"/><path d="m462.936 282.765c0 4.327-1.03 8.746-3.235 12.867l-38.992 73.06c-8.345 15.638-22.025 27.763-38.549 34.171l-129.84 50.376c-6.73 2.611-11.697 8.429-13.22 15.485l-7.452 34.512c-1.104 5.114-5.627 8.765-10.859 8.765h-163.715c-5.724 0-9.6-5.833-7.381-11.11l45.964-109.349 4.677-38.951c2.668-22.2 9.148-43.762 19.161-63.758l21.912-43.731c6.336-12.65 21.139-18.554 34.449-13.753 7.619 17.851-8.46 81.747-8.46 81.747-1.174 6.274 22.464 26.326 22.464 26.326 5.934 6.778 19.517 8.894 28.408 8.286h.01c.814-.052 1.628-.144 2.452-.278.062-.01.103-.01.113-.01l134.836-21.465c8.292-1.32 15.777-5.731 20.949-12.346l37.333-47.748c7.448-9.529 20.274-13.042 31.544-8.643 10.92 4.263 17.431 14.668 17.431 25.547z" fill="#ffcebf"/><path d="m445.503 257.217c-7.81-3.05-16.362-2.293-23.358 1.627 12.802 7.148 17.892 23.45 10.773 36.788l-38.996 73.058c-8.347 15.638-22.026 27.764-38.552 34.176l-125.815 48.814c-9.24 3.585-16.06 11.573-18.153 21.26l-6.28 29.073c-.877 4.059-3.269 7.631-6.689 9.988h22.353c5.232 0 9.754-3.65 10.859-8.764l7.456-34.513c1.524-7.055 6.491-12.872 13.22-15.483l129.837-50.374c16.526-6.412 30.205-18.538 38.552-34.176l38.996-73.058c7.724-14.475 1.08-32.448-14.203-38.416z" fill="#ffb09e"/><path d="m205.398 345.618.016-.003c-4.048-1.661-7.731-4.239-10.708-7.635-.002-.003-.005-.006-.008-.008l-.006-.007-.273-.313s-.001 0-.001.001l-5.382-6.145c-4.206-4.801-5.975-11.267-4.801-17.541l9.473-50.614c2.433-13-4.212-26.256-16.384-31.428-8.195-3.483-17.103-2.763-24.344 1.19 10.462 5.711 16.306 17.607 14.054 29.636l-9.35 49.956c-1.323 7.069.671 14.355 5.41 19.765l4.817 5.499c1.271 1.451 2.669 2.754 4.17 3.9 2.555 1.952 2.637 5.723.105 7.703-3.195 2.498-6.219 5.348-8.939 8.598-2.73 3.276-2.297 8.149.979 10.889 1.442 1.205 3.204 1.803 4.945 1.803 2.215 0 4.409-.948 5.934-2.771 7.654-9.158 19.017-14.33 28.505-17.204 6.222-1.885 11.631-2.792 14.659-3.183-4.437.304-8.838-.432-12.871-2.088z" fill="#ffb09e"/><g fill="#b98080"><circle cx="235.039" cy="276.047" r="7.726"/><circle cx="260.948" cy="299.659" r="7.726"/></g></g></svg>