<svg height="512" viewBox="0 0 64 64" width="512" xmlns="http://www.w3.org/2000/svg"><g id="Layer_28" data-name="Layer 28"><path d="m31.25 44.658-1.974-.324.737-4.5.808-3.884a45.964 45.964 0 0 1 22.693-30.824l5-2.772.97 1.75-5 2.771a43.965 43.965 0 0 0 -21.705 29.487l-.8 3.842z" fill="#1d7147"/><path d="m28.535 43.062-1.612-2.524a44.018 44.018 0 0 0 -17.409-17.664l-4.209-2.208.929-1.766 4.231 2.219a45.944 45.944 0 0 1 18.181 18.406l1.575 2.46z" fill="#1d7147"/><path d="m36.615 45.148-1.515-1.3 3.769-4.373a45.8 45.8 0 0 1 12.645-10.349l4.867-2.437.894 1.79-4.828 2.421a43.813 43.813 0 0 0 -12.06 9.877z" fill="#1d7147"/><rect fill="#bc7e4f" height="4" rx="2" width="28" x="17.956" y="40"/><path d="m19.956 44 1.444 13.03a5.586 5.586 0 0 0 5.556 4.97h10a5.585 5.585 0 0 0 5.552-4.969l1.448-13.031z" fill="#825031"/><g fill="#5d9d4d"><path d="m37 23 .314 1.568a4.268 4.268 0 0 0 4.186 3.432 2.5 2.5 0 0 0 2.5-2.5 2.5 2.5 0 0 0 -2.5-2.5z"/><path d="m42 16 3.738.623a2.708 2.708 0 0 1 2.262 2.67 2.707 2.707 0 0 1 -2.707 2.707 2.708 2.708 0 0 1 -2.67-2.262z"/><path d="m46 12 .444 2.221a3.457 3.457 0 0 0 3.39 2.779 2.166 2.166 0 0 0 2.166-2.166 2.166 2.166 0 0 0 -1.81-2.134z"/><path d="m51 8 .515 2.06a2.562 2.562 0 0 0 2.485 1.94 2 2 0 0 0 2-2 2 2 0 0 0 -2-2z"/><path d="m54 6 1.8-2.4a4 4 0 0 1 3.2-1.6 2 2 0 0 1 2 2 2 2 0 0 1 -2 2z"/><path d="m36 24-.314-1.568a4.268 4.268 0 0 0 -4.186-3.432 2.5 2.5 0 0 0 -2.5 2.5 2.5 2.5 0 0 0 2.5 2.5z"/><path d="m40 18-3.738-.623a2.708 2.708 0 0 1 -2.262-2.67 2.707 2.707 0 0 1 2.707-2.707 2.708 2.708 0 0 1 2.67 2.262z"/><path d="m45 12-.444-2.221a3.457 3.457 0 0 0 -3.39-2.779 2.166 2.166 0 0 0 -2.166 2.166 2.166 2.166 0 0 0 1.81 2.134z"/><path d="m50 8-2.06-.515a2.562 2.562 0 0 1 -1.94-2.485 2 2 0 0 1 2-2 2 2 0 0 1 2 2z"/><path d="m21.378 31.378-3.738.622a2.708 2.708 0 0 0 -2.262 2.67 2.707 2.707 0 0 0 2.707 2.707 2.708 2.708 0 0 0 2.67-2.262z"/><path d="m18 28-.444 2.221a3.457 3.457 0 0 1 -3.39 2.779 2.166 2.166 0 0 1 -2.166-2.166 2.166 2.166 0 0 1 1.81-2.134z"/><path d="m13 24-.515 2.06a2.562 2.562 0 0 1 -2.485 1.94 2 2 0 0 1 -2-2 2 2 0 0 1 2-2z"/><path d="m10 22-1.8-2.4a4 4 0 0 0 -3.2-1.6 2 2 0 0 0 -2 2 2 2 0 0 0 2 2z"/><path d="m23.378 33.378 3.738-.623a2.708 2.708 0 0 0 2.262-2.67 2.707 2.707 0 0 0 -2.707-2.707 2.708 2.708 0 0 0 -2.671 2.262z"/><path d="m19 28 .444-2.221a3.457 3.457 0 0 1 3.39-2.779 2.166 2.166 0 0 1 2.166 2.166 2.166 2.166 0 0 1 -1.81 2.134z"/><path d="m14 24 2.06-.515a2.562 2.562 0 0 0 1.94-2.485 2 2 0 0 0 -2-2 2 2 0 0 0 -2 2z"/><path d="m44 36 .444 2.221a3.457 3.457 0 0 0 3.39 2.779 2.166 2.166 0 0 0 2.166-2.166 2.166 2.166 0 0 0 -1.81-2.134z"/><path d="m49 32 .515 2.06a2.562 2.562 0 0 0 2.485 1.94 2 2 0 0 0 2-2 2 2 0 0 0 -2-2z"/><path d="m52 30 1.8-2.4a4 4 0 0 1 3.2-1.6 2 2 0 0 1 2 2 2 2 0 0 1 -2 2z"/><path d="m43 36-.444-2.221a3.457 3.457 0 0 0 -3.39-2.779 2.166 2.166 0 0 0 -2.166 2.166 2.166 2.166 0 0 0 1.81 2.134z"/><path d="m48 32-2.06-.515a2.562 2.562 0 0 1 -1.94-2.485 2 2 0 0 1 2-2 2 2 0 0 1 2 2z"/></g><path d="m43.956 40h-24a2 2 0 0 0 2 2h24a2 2 0 0 0 -2-2z" fill="#cd8b59"/><path d="m28.383 46a5.479 5.479 0 0 0 -5.409 6.346l.43 2.684a5.587 5.587 0 0 0 5.552 4.97h10a5.553 5.553 0 0 0 2.8-.765 5.54 5.54 0 0 0 .75-2.2l1.228-11.035z" fill="#956140"/></g></svg>